<svg width="14" height="17" viewBox="0 0 14 17" fill="none" xmlns="http://www.w3.org/2000/svg">
<path d="M3.36342 1.82235C3.36342 1.31525 3.78104 0.867809 4.31797 0.867809C4.82507 0.867809 5.27251 1.31525 5.27251 1.82235V2.7769H9.0907V1.82235C9.0907 1.31525 9.50831 0.867809 10.0452 0.867809C10.5523 0.867809 10.9998 1.31525 10.9998 1.82235V2.7769H12.4316C13.2072 2.7769 13.8634 3.43315 13.8634 4.20872V5.64054H0.499786V4.20872C0.499786 3.43315 1.12621 2.7769 1.9316 2.7769H3.36342V1.82235ZM13.8634 14.7087C13.8634 15.5141 13.2072 16.1405 12.4316 16.1405H1.9316C1.12621 16.1405 0.499786 15.5141 0.499786 14.7087V6.59508H13.8634V14.7087Z" fill="#3B97E5"/>
</svg>
