<svg width="16" height="17" viewBox="0 0 16 17" fill="none" xmlns="http://www.w3.org/2000/svg">
<path d="M8.18209 16.1405C3.9463 16.1405 0.545729 12.74 0.545729 8.50417C0.545729 4.29821 3.9463 0.867809 8.18209 0.867809C12.3881 0.867809 15.8185 4.29821 15.8185 8.50417C15.8185 12.74 12.3881 16.1405 8.18209 16.1405ZM7.46618 8.50417C7.46618 8.74281 7.5855 8.98145 7.76448 9.10076L10.6281 11.0099C10.9562 11.2485 11.4037 11.159 11.6125 10.8309C11.8511 10.5028 11.7616 10.0553 11.4335 9.81667L8.898 8.14622V4.44735C8.898 4.05957 8.56988 3.73145 8.15226 3.73145C7.76448 3.73145 7.43635 4.05957 7.43635 4.44735L7.46618 8.50417Z" fill="#3B97E5"/>
</svg>
