<svg width="17" height="15" viewBox="0 0 17 15" fill="none" xmlns="http://www.w3.org/2000/svg">
<path d="M4.69692 13.2314C4.69692 13.7684 4.24948 14.186 3.74237 14.1263H1.83328C1.29635 14.1263 0.878737 13.7087 0.878737 13.2016V6.54963C0.878737 6.04252 1.29635 5.59508 1.83328 5.59508H3.74237C4.24948 5.59508 4.69692 6.0127 4.69692 6.54963V13.2314ZM16.1515 6.57946C16.1515 7.3252 15.5549 7.95162 14.8091 7.98145C15.0478 8.24991 15.1969 8.57804 15.1969 8.96582C15.1969 9.6519 14.6898 10.2187 14.0037 10.3678C14.1529 10.5766 14.2424 10.8153 14.2424 11.0837C14.2424 11.74 13.8248 12.2769 13.2282 12.4559C13.258 12.5454 13.2878 12.6647 13.2878 12.784C13.2878 13.5596 12.6316 14.186 11.856 14.186H10.0961C9.05203 14.186 8.06766 13.8579 7.23243 13.2314L6.21823 12.4857C5.86027 12.2172 5.65146 11.7996 5.65146 11.3224V6.54963C5.65146 6.57946 5.65146 6.54963 5.65146 6.54963C5.65146 6.13201 5.83044 5.74423 6.1884 5.44593L6.66567 5.05815C9.11169 3.11923 8.008 0.822355 9.88726 0.822355C10.812 0.822355 11.3787 1.56809 11.3787 2.284C11.3787 2.73145 11.0208 4.01412 10.3347 5.14764H14.7196C15.4952 5.14764 16.1515 5.77406 16.1515 6.57946Z" fill="#3B97E5"/>
</svg>
