<svg width="234" height="40" viewBox="0 0 234 40" fill="none" xmlns="http://www.w3.org/2000/svg">
<path d="M35.758 26.3614C34.9689 27.4266 33.9629 28.255 32.7399 28.8468C31.5169 29.3992 30.215 29.6753 28.8341 29.6753C26.6248 29.6753 24.7509 29.1427 23.2122 28.0775C21.713 27.0123 20.5689 25.592 19.7799 23.8167C19.0303 22.0414 18.6555 20.0885 18.6555 17.9581C18.6555 15.7488 19.0698 13.7762 19.8983 12.0403C20.7267 10.2649 21.9103 8.86438 23.4489 7.83863C25.027 6.81288 26.8615 6.3 28.9525 6.3C30.6884 6.3 32.1481 6.61562 33.3317 7.24685C34.5547 7.87808 35.5213 8.62767 36.2314 9.49562C36.547 8.58822 37.0599 7.93726 37.77 7.54274C38.5196 7.10877 39.4073 6.89178 40.433 6.89178H40.7289C41.1629 6.89178 41.3799 7.12849 41.3799 7.60192V28.7486C41.3799 29.1826 41.1629 29.3996 40.7289 29.3996H36.3497C35.9552 29.3996 35.758 29.1826 35.758 28.7486V26.3614ZM30.0769 24.3493C30.8265 24.3493 31.6352 24.1915 32.5032 23.8759C33.4106 23.5208 34.1799 22.8896 34.8111 21.9822C35.4424 21.0748 35.758 19.7334 35.758 17.9581C35.758 16.1827 35.4424 14.8611 34.8111 13.9931C34.1799 13.0857 33.4303 12.494 32.5624 12.2178C31.6944 11.9022 30.8856 11.7444 30.1361 11.7444C29.347 11.7444 28.4988 11.9219 27.5914 12.277C26.7235 12.6321 25.9739 13.2633 25.3426 14.1707C24.7509 15.0781 24.455 16.3405 24.455 17.9581C24.455 19.6545 24.7706 20.9762 25.4018 21.923C26.0725 22.8304 26.8418 23.4616 27.7098 23.8167C28.5777 24.1718 29.3667 24.3493 30.0769 24.3493Z" fill="white"/>
<path d="M1.18142 22.7158C2.08465 23.4689 3.0394 24.0631 4.04223 24.495C5.04506 24.9303 6.25395 25.1479 7.67234 25.1479C10.0729 25.1479 11.2715 24.3775 11.2715 22.8333C11.2715 22.1596 10.9075 21.6276 10.1794 21.2303C9.45133 20.8364 8.56527 20.4599 7.52466 20.1041C6.48062 19.7482 5.42971 19.3129 4.36849 18.7982C3.30728 18.2834 2.41091 17.6029 1.68283 16.7495C0.954749 15.8997 0.590708 14.7424 0.590708 13.2776C0.590708 11.6539 0.992527 10.3411 1.7996 9.32886C2.60667 8.32008 3.66789 7.57733 4.98668 7.10403C6.30547 6.63074 7.71012 6.39236 9.20406 6.39236C11.0517 6.39236 12.5869 6.68947 13.8061 7.28368C14.8295 7.71897 15.4958 8.24408 15.8117 8.85556C16.1277 9.4705 16.1277 10.3307 15.8117 11.4362L15.6332 12.0892C15.5164 12.407 15.3584 12.5625 15.1627 12.5625C15.0459 12.5625 14.9463 12.5314 14.8673 12.4726C14.7883 12.4139 14.6715 12.3655 14.5136 12.3241C12.6624 11.4155 10.856 10.9595 9.08386 10.9595C8.29739 10.9595 7.62769 11.1184 7.0782 11.4328C6.52527 11.7506 6.25052 12.2446 6.25052 12.9183C6.25052 13.592 6.61456 14.1343 7.34264 14.5489C8.07072 14.9635 8.95679 15.3504 9.99739 15.7062C11.038 16.0621 12.0923 16.4974 13.1536 17.0121C14.2148 17.5269 15.1111 18.2005 15.8392 19.0296C16.5673 19.8622 16.9313 20.9677 16.9313 22.3531C16.9313 24.571 16.1449 26.3605 14.5719 27.7251C12.999 29.0897 10.9144 29.7737 8.318 29.7737C6.66607 29.7737 5.22021 29.487 3.98041 28.9135C2.74061 28.34 1.76869 27.5766 1.06121 26.63C0.353738 25.6799 0 24.6919 0 23.6624C0 22.8713 0.23697 22.474 0.707476 22.474C0.865456 22.474 1.02344 22.5534 1.17798 22.7123L1.18142 22.7158Z" fill="white"/>
<path d="M98.266 30.6106C98.5208 29.9967 98.5346 29.3105 98.3073 28.6829L90.7585 7.63679C90.7206 7.48161 90.7275 7.32298 90.7894 7.16435C90.848 7.00917 90.9548 6.92985 91.1132 6.92985H92.3495C93.9578 6.92985 95.1459 7.26435 95.9104 7.93336C96.6749 8.60236 97.3913 9.86106 98.0594 11.706L101.71 22.6722L106.655 7.69886C106.889 7.18849 107.203 6.9333 107.599 6.9333H111.955C112.151 6.9333 112.269 7.01261 112.31 7.1678C112.348 7.32643 112.348 7.48161 112.31 7.64024L104.658 29.1588C103.99 31.083 103.273 32.8038 102.509 34.3177C101.744 35.8316 100.811 37.0178 99.7124 37.8834C98.6138 38.749 97.2191 39.18 95.5316 39.18C94.2746 39.18 93.2139 38.9145 92.3529 38.3834C91.4885 37.8524 90.8411 37.1765 90.4106 36.3488C89.9801 35.5246 89.7632 34.7177 89.7632 33.9314C89.7632 33.6556 89.8217 33.4004 89.9388 33.1659C90.0559 32.9314 90.2316 32.8107 90.4692 32.8107C90.5484 32.8107 90.6345 32.8417 90.7343 32.9004C90.8308 32.959 90.9203 33.0279 90.9995 33.1073C92.0602 33.8935 93.1175 34.2866 94.1782 34.2866C95.2389 34.2866 96.1411 33.9418 96.7679 33.2555C97.2673 32.7072 97.7701 31.8244 98.2694 30.614L98.266 30.6106Z" fill="white"/>
<path d="M64.3655 6.92985H63.3593C61.7031 6.92985 60.4722 7.26646 59.6665 7.93968C58.8609 8.61289 58.1797 9.89686 57.6265 11.7951L54.2448 22.7435C54.1584 23.0211 53.7642 23.0211 53.6812 22.7435L49.0583 7.7037C48.9407 7.19012 48.6434 6.93332 48.1731 6.93332H43.7404C43.5433 6.93332 43.405 7.01314 43.3254 7.16929C43.2701 7.28381 43.2563 7.39833 43.2805 7.50937C43.2909 7.55449 43.3047 7.5996 43.3254 7.64471L49.8605 26.6197C50.3999 28.1848 51.8694 29.2362 53.5222 29.2362H54.5837C56.2399 29.2362 57.7095 28.1813 58.2489 26.6093L64.7251 7.64124C64.8427 7.16582 64.7251 6.92985 64.369 6.92985H64.3655Z" fill="white"/>
<path d="M88.0154 6.92985H87.0092C85.353 6.92985 84.1221 7.26646 83.3164 7.93968C82.5108 8.61289 81.8296 9.89686 81.2764 11.7951L77.8947 22.7435C77.8083 23.0211 77.4141 23.0211 77.3311 22.7435L72.7082 7.7037C72.5906 7.19012 72.2933 6.93332 71.823 6.93332H67.3903C67.1932 6.93332 67.0549 7.01314 66.9753 7.16929C66.92 7.28381 66.9062 7.39833 66.9304 7.50937C66.9408 7.55449 66.9546 7.5996 66.9753 7.64471L73.5104 26.6197C74.0498 28.1848 75.5193 29.2362 77.1721 29.2362H78.2336C79.8898 29.2362 81.3594 28.1813 81.8988 26.6093L88.375 7.64124C88.4926 7.16582 88.375 6.92985 88.0189 6.92985H88.0154Z" fill="white"/>
<path d="M151.062 4.94146C151.381 4.94146 151.606 5.25385 151.505 5.55572L142.909 31.2413C142.146 33.5215 140.011 35.0585 137.606 35.0586H112.804C112.486 35.0584 112.262 34.7462 112.363 34.4444L121.01 8.75005C121.776 6.47431 123.91 4.94146 126.311 4.94146H151.062ZM136.226 19.5147C133.829 17.1122 129.943 17.1122 127.546 19.5147L125.115 21.9502C123.6 23.4683 123.582 25.9223 125.061 27.462C126.541 29.0015 129.167 29.0235 130.725 27.462H130.728L131.538 26.6514C131.731 26.4577 132.045 26.4576 132.238 26.6514L133.047 27.462C134.605 29.0236 137.183 29.0537 138.712 27.462C140.24 25.8704 140.174 23.4682 138.657 21.9502L136.226 19.5147ZM139.958 14.6514C138.884 14.4007 137.705 15.21 137.321 16.4561C136.937 17.7024 137.498 18.9162 138.569 19.167C139.643 19.4178 140.822 18.6086 141.206 17.3624C141.589 16.1161 141.032 14.9023 139.958 14.6514ZM126.47 16.4532C126.086 15.2072 124.908 14.3979 123.834 14.6485C122.762 14.8994 122.202 16.1141 122.586 17.3604C122.97 18.6064 124.151 19.4158 125.222 19.1651C126.294 18.9142 126.854 17.6995 126.47 16.4532ZM130.95 13.4376C130.549 12.0024 129.375 11.0584 128.329 11.3282C127.285 11.5955 126.761 12.9763 127.161 14.4112C127.561 15.8463 128.735 16.7903 129.782 16.5206C130.826 16.2533 131.35 14.8726 130.95 13.4376ZM135.463 11.3282C134.416 11.0584 133.242 12.0024 132.842 13.4376C132.441 14.8699 132.963 16.2507 134.009 16.5206C135.056 16.7903 136.23 15.8463 136.631 14.4112C137.031 12.9791 136.509 11.5982 135.463 11.3282Z" fill="white"/>
<path d="M151.062 4.94146C151.381 4.94146 151.606 5.25385 151.505 5.55572L142.909 31.2413C142.146 33.5215 140.011 35.0585 137.606 35.0586H112.804C112.486 35.0584 112.262 34.7462 112.363 34.4444L121.01 8.75005C121.776 6.47431 123.91 4.94146 126.311 4.94146H151.062ZM136.226 19.5147C133.829 17.1122 129.943 17.1122 127.546 19.5147L125.115 21.9502C123.6 23.4683 123.582 25.9223 125.061 27.462C126.541 29.0015 129.167 29.0235 130.725 27.462H130.728L131.538 26.6514C131.731 26.4577 132.045 26.4576 132.238 26.6514L133.047 27.462C134.605 29.0236 137.183 29.0537 138.712 27.462C140.24 25.8704 140.174 23.4682 138.657 21.9502L136.226 19.5147ZM139.958 14.6514C138.884 14.4007 137.705 15.21 137.321 16.4561C136.937 17.7024 137.498 18.9162 138.569 19.167C139.643 19.4178 140.822 18.6086 141.206 17.3624C141.589 16.1161 141.032 14.9023 139.958 14.6514ZM126.47 16.4532C126.086 15.2072 124.908 14.3979 123.834 14.6485C122.762 14.8994 122.202 16.1141 122.586 17.3604C122.97 18.6064 124.151 19.4158 125.222 19.1651C126.294 18.9142 126.854 17.6995 126.47 16.4532ZM130.95 13.4376C130.549 12.0024 129.375 11.0584 128.329 11.3282C127.285 11.5955 126.761 12.9763 127.161 14.4112C127.561 15.8463 128.735 16.7903 129.782 16.5206C130.826 16.2533 131.35 14.8726 130.95 13.4376ZM135.463 11.3282C134.416 11.0584 133.242 12.0024 132.842 13.4376C132.441 14.8699 132.963 16.2507 134.009 16.5206C135.056 16.7903 136.23 15.8463 136.631 14.4112C137.031 12.9791 136.509 11.5982 135.463 11.3282Z" fill="white"/>
<path d="M155.976 35.3233V7.20617C155.976 6.97226 156.166 6.78307 156.402 6.78307H160.187C160.408 6.78307 160.591 6.95162 160.612 7.17177L160.737 8.61993C160.768 8.98455 161.214 9.13935 161.47 8.87792C162.157 8.159 162.939 7.60863 163.81 7.22681C164.968 6.71771 166.247 6.46317 167.647 6.46317C169.746 6.46317 171.481 6.94474 172.857 7.90789C174.229 8.87104 175.253 10.1713 175.927 11.8052C176.601 13.4391 176.936 15.2863 176.936 17.3502C176.936 19.4141 176.587 21.2682 175.885 22.9158C175.183 24.5635 174.129 25.8638 172.715 26.8131C171.301 27.7625 169.531 28.2407 167.405 28.2407C166.41 28.2407 165.5 28.134 164.681 27.9208C163.858 27.7075 163.132 27.3979 162.5 26.9955C162.178 26.7925 161.884 26.5758 161.615 26.3419C161.345 26.108 160.906 26.2903 160.906 26.6584V31.2746C160.906 33.7478 158.891 35.7532 156.405 35.7532C156.17 35.7532 155.98 35.5641 155.98 35.3301L155.976 35.3233ZM166.634 23.8171C168.007 23.8171 169.082 23.5144 169.863 22.9124C170.644 22.3104 171.208 21.5193 171.561 20.5424C171.91 19.5654 172.086 18.5266 172.086 17.4293C172.086 16.332 171.903 15.2072 171.54 14.2165C171.177 13.2259 170.593 12.4209 169.784 11.8052C168.975 11.1895 167.9 10.8799 166.555 10.8799C165.317 10.8799 164.273 11.1826 163.426 11.7846C162.579 12.3865 161.94 13.1846 161.508 14.1752C161.075 15.1659 160.861 16.2391 160.861 17.388C160.861 18.5369 161.062 19.6446 161.466 20.6215C161.871 21.5984 162.503 22.3758 163.364 22.9502C164.225 23.5281 165.314 23.8136 166.634 23.8136V23.8171Z" fill="white"/>
<path d="M188.66 28.2257C186.445 28.2257 184.556 27.772 183.005 26.8611C181.449 25.9501 180.276 24.6886 179.478 23.0661C178.679 21.4471 178.28 19.5668 178.28 17.4252C178.28 15.2837 178.693 13.3897 179.516 11.7431C180.339 10.0966 181.529 8.80752 183.084 7.86909C184.64 6.9341 186.511 6.46317 188.701 6.46317C190.322 6.46317 191.742 6.75191 192.957 7.32597C194.172 7.90346 195.193 8.68377 196.019 9.67376C196.842 10.6637 197.46 11.7878 197.862 13.0459C198.265 14.3006 198.456 15.6171 198.432 17.0024C198.432 17.0127 198.432 17.0265 198.432 17.0368C198.404 17.3531 198.38 17.6624 198.352 17.9649C198.334 18.1609 198.31 18.3671 198.282 18.5802C198.255 18.7933 198.071 18.9515 197.859 18.9515H183.713C183.452 18.9515 183.248 19.1818 183.289 19.4362C183.404 20.1855 183.636 20.8799 183.98 21.5227C184.4 22.2996 184.994 22.9149 185.764 23.3686C186.535 23.8224 187.5 24.0527 188.663 24.0527C189.34 24.0527 189.986 23.9667 190.611 23.7914C191.232 23.6161 191.78 23.3583 192.253 23.0077C192.645 22.7189 192.929 22.3649 193.11 21.9489C193.179 21.7908 193.332 21.6843 193.506 21.6843H197.599C197.88 21.6843 198.088 21.9524 198.012 22.2205C197.64 23.5027 197.036 24.5683 196.203 25.4173C195.255 26.3798 194.127 27.0914 192.818 27.5451C191.506 27.9989 190.121 28.2292 188.663 28.2292L188.66 28.2257ZM183.789 15.3009H193.162C193.415 15.3009 193.61 15.0843 193.589 14.8368C193.53 14.1356 193.332 13.4859 192.999 12.8947C192.593 12.1728 192.02 11.6022 191.277 11.1897C190.534 10.7737 189.635 10.5675 188.58 10.5675C187.445 10.5675 186.497 10.7944 185.74 11.2516C184.983 11.7053 184.404 12.2965 183.997 13.0184C183.678 13.589 183.466 14.1871 183.366 14.8093C183.324 15.0706 183.522 15.3078 183.789 15.3078V15.3009Z" fill="white"/>
<path d="M209.837 27.9605C208.114 27.9605 206.692 27.7329 205.574 27.2744C204.456 26.8193 203.619 26.0815 203.069 25.0609C202.515 24.0404 202.242 22.6717 202.242 20.9547V11.5149C202.242 11.2804 202.051 11.0908 201.816 11.0908H199.397C199.162 11.0908 198.971 10.9012 198.971 10.6668V7.16733C198.971 6.93289 199.162 6.74327 199.397 6.74327H201.816C202.051 6.74327 202.242 6.55364 202.242 6.3192V1.24417C202.242 1.00973 202.432 0.820107 202.667 0.820107H206.744C206.979 0.820107 207.169 1.00973 207.169 1.24417V6.3123C207.169 6.54675 207.36 6.73637 207.595 6.73637H211.713C211.948 6.73637 212.139 6.92599 212.139 7.16044V10.6599C212.139 10.8943 211.948 11.0839 211.713 11.0839H207.595C207.36 11.0839 207.169 11.2736 207.169 11.508V20.3031C207.169 21.3788 207.356 22.1959 207.733 22.7579C208.111 23.3233 208.958 23.6026 210.28 23.6026H211.55C211.786 23.6026 211.976 23.7922 211.976 24.0266V27.526C211.976 27.7605 211.786 27.9501 211.55 27.9501H209.834L209.837 27.9605Z" fill="white"/>
</svg>
