<svg preserveAspectRatio="none" width="100%" height="100%" overflow="visible" style="display: block;" viewBox="0 0 5 8" fill="none" xmlns="http://www.w3.org/2000/svg">
<path id="order-arrow-down" d="M0.185673 5.9191L1.58138 7.31481C1.70029 7.43372 1.86014 7.5 2.02778 7.5C2.19542 7.5 2.35526 7.43372 2.47417 7.31481L3.86988 5.9191C4.11745 5.67154 4.11745 5.27193 3.86988 5.02632C3.74708 4.90351 3.58528 4.84113 3.42349 4.84113C3.2617 4.84113 3.0999 4.90351 2.9771 5.02632L2.65156 5.35185V0.623782C2.65156 0.278752 2.37281 0 2.02778 0C1.68275 0 1.404 0.278752 1.404 0.623782V5.35185L1.07846 5.02632C0.830897 4.77875 0.431287 4.77875 0.185673 5.02632C-0.0618908 5.27388 -0.0618908 5.67349 0.185673 5.9191Z" fill="var(--fill-0, #717E8F)"/>
</svg>
