<svg preserveAspectRatio="none" width="100%" height="100%" overflow="visible" style="display: block;" viewBox="0 0 26 31" fill="none" xmlns="http://www.w3.org/2000/svg">
<g id="&#60;Group&#62;">
<path id="&#60;Path&#62;" d="M21.0217 16.4516C21.037 15.2659 21.3519 14.1033 21.9373 13.0719C22.5226 12.0406 23.3593 11.1741 24.3695 10.553C23.7278 9.6365 22.8812 8.88222 21.8969 8.35011C20.9126 7.81801 19.8179 7.52274 18.6995 7.48775C16.3139 7.23734 14.0012 8.91525 12.7855 8.91525C11.5463 8.91525 9.67464 7.51261 7.65913 7.55408C6.35545 7.59619 5.0849 7.9753 3.97129 8.65445C2.85768 9.3336 1.93898 10.2896 1.30471 11.4294C-1.44282 16.1863 0.60659 23.1774 3.23849 27.0225C4.55528 28.9053 6.09424 31.0085 8.10793 30.934C10.0784 30.8522 10.8144 29.6774 13.193 29.6774C15.5495 29.6774 16.24 30.934 18.2945 30.8865C20.409 30.8522 21.7412 28.9953 23.0118 27.0946C23.9579 25.753 24.6859 24.2703 25.1689 22.7013C23.9405 22.1817 22.8921 21.312 22.1547 20.2007C21.4172 19.0893 21.0231 17.7854 21.0217 16.4516Z" fill="var(--fill-0, white)"/>
<path id="&#60;Path&#62;_2" d="M17.141 4.95893C18.2939 3.57492 18.8619 1.79602 18.7244 3.8147e-07C16.963 0.184997 15.336 1.02681 14.1675 2.35771C13.5962 3.00789 13.1587 3.7643 12.8799 4.58368C12.6011 5.40307 12.4865 6.26936 12.5427 7.13305C13.4237 7.14212 14.2953 6.95117 15.0918 6.57458C15.8883 6.19798 16.589 5.64556 17.141 4.95893Z" fill="var(--fill-0, white)"/>
</g>
</svg>
