<svg preserveAspectRatio="none" width="100%" height="100%" overflow="visible" style="display: block;" viewBox="0 0 6 10" fill="none" xmlns="http://www.w3.org/2000/svg">
<g id="drag-dots">
<path d="M2 1C2 1.55231 1.55273 2 1 2C0.447266 2 0 1.55231 0 1C0 0.447693 0.447266 0 1 0C1.55273 0 2 0.447693 2 1Z" fill="var(--fill-0, #717E8F)"/>
<path d="M2 5C2 5.55231 1.55273 6 1 6C0.447266 6 0 5.55231 0 5C0 4.44769 0.447266 4 1 4C1.55273 4 2 4.44769 2 5Z" fill="var(--fill-0, #717E8F)"/>
<path d="M1 10C1.55273 10 2 9.55231 2 9C2 8.44769 1.55273 8 1 8C0.447266 8 0 8.44769 0 9C0 9.55231 0.447266 10 1 10Z" fill="var(--fill-0, #717E8F)"/>
<path d="M6 1C6 1.55231 5.55273 2 5 2C4.44727 2 4 1.55231 4 1C4 0.447693 4.44727 0 5 0C5.55273 0 6 0.447693 6 1Z" fill="var(--fill-0, #717E8F)"/>
<path d="M5 6C5.55273 6 6 5.55231 6 5C6 4.44769 5.55273 4 5 4C4.44727 4 4 4.44769 4 5C4 5.55231 4.44727 6 5 6Z" fill="var(--fill-0, #717E8F)"/>
<path d="M6 9C6 9.55231 5.55273 10 5 10C4.44727 10 4 9.55231 4 9C4 8.44769 4.44727 8 5 8C5.55273 8 6 8.44769 6 9Z" fill="var(--fill-0, #717E8F)"/>
</g>
</svg>
