<svg preserveAspectRatio="none" width="100%" height="100%" overflow="visible" style="display: block;" viewBox="0 0 32 32" fill="none" xmlns="http://www.w3.org/2000/svg">
<g id="Frame 2147223457">
<rect width="32" height="32" rx="16" fill="var(--fill-0, #FFF0ED)"/>
<path id="&#226;&#128;&#156;" d="M23.0389 9.5C23.0389 9.5 23.1143 9.51806 23.265 9.55417C23.4158 9.59028 23.5665 9.71667 23.7173 9.93333C23.8681 10.15 23.9435 10.5292 23.9435 11.0708C23.9435 11.7569 23.8304 12.2083 23.6042 12.425C23.3781 12.6056 23.2273 12.7139 23.1519 12.75C23.1143 12.7861 22.8504 12.9847 22.3604 13.3458C21.9081 13.7069 21.6254 14.3569 21.5124 15.2958C21.8893 15.3681 22.2097 15.4764 22.4735 15.6208C22.775 15.7292 23.0389 15.8917 23.265 16.1083C23.6042 16.4333 23.8115 16.8667 23.8869 17.4083C23.9623 17.9139 24 18.4194 24 18.925C24 19.5028 23.9435 20.0625 23.8304 20.6042C23.7173 21.1458 23.3969 21.5972 22.8693 21.9583C22.3416 22.3194 21.437 22.5 20.1555 22.5C18.7232 22.5 17.7055 22.2111 17.1025 21.6333C16.7633 21.3083 16.5559 20.8931 16.4806 20.3875C16.4052 19.8458 16.3675 19.3222 16.3675 18.8167C16.3675 18.5639 16.3675 18.3111 16.3675 18.0583C16.4052 17.8056 16.4429 17.5708 16.4806 17.3542C16.6313 15.9097 17.0082 14.5917 17.6113 13.4C18.2521 12.2083 19.0436 11.2694 19.9859 10.5833C20.9281 9.86111 21.9458 9.5 23.0389 9.5ZM14.6148 9.5C14.6148 9.5 14.6902 9.51806 14.841 9.55417C15.0294 9.59028 15.1991 9.71667 15.3498 9.93333C15.5006 10.15 15.576 10.5292 15.576 11.0708C15.576 11.7569 15.4629 12.2083 15.2367 12.425C15.0106 12.6056 14.841 12.7139 14.7279 12.75C14.6902 12.7861 14.4452 12.9847 13.9929 13.3458C13.5406 13.7069 13.2391 14.3569 13.0883 15.2958C13.4653 15.3681 13.7856 15.4764 14.0495 15.6208C14.351 15.7292 14.6148 15.8917 14.841 16.1083C15.2179 16.4333 15.4252 16.8667 15.4629 17.4083C15.5383 17.9139 15.576 18.4194 15.576 18.925C15.576 19.5028 15.5194 20.0625 15.4064 20.6042C15.2933 21.1458 14.9729 21.5972 14.4452 21.9583C13.9176 22.3194 13.013 22.5 11.7314 22.5C10.2992 22.5 9.30035 22.2111 8.73498 21.6333C8.35807 21.3083 8.13192 20.8931 8.05654 20.3875C8.01885 19.8458 8 19.3222 8 18.8167C8 18.5639 8 18.3111 8 18.0583C8.03769 17.8056 8.07538 17.5708 8.11307 17.3542C8.26384 15.9097 8.64075 14.5917 9.24382 13.4C9.84688 12.2083 10.6196 11.2694 11.5618 10.5833C12.5041 9.86111 13.5218 9.5 14.6148 9.5Z" fill="var(--fill-0, #FF997E)"/>
</g>
</svg>
