<svg preserveAspectRatio="none" width="100%" height="100%" overflow="visible" style="display: block;" viewBox="0 0 24 21" fill="none" xmlns="http://www.w3.org/2000/svg">
<path id="paw" opacity="0.2" d="M12.0234 8.97045C15.7267 8.97045 20.9769 14.7363 20.9769 18.3927C20.9769 20.0334 19.7112 20.9709 17.6487 20.9709C15.3517 20.9709 13.8516 19.799 12.0234 19.799C10.1484 19.799 8.64831 20.9709 6.35134 20.9709C4.24188 20.9709 3.02309 20.0334 3.02309 18.3927C3.02309 14.7363 8.27329 8.97045 12.0234 8.97045ZM5.08567 8.40793C5.60131 10.0017 4.89816 11.5956 3.49185 11.9237C2.13243 12.2518 0.632366 11.2205 0.163598 9.57985C-0.352047 7.93916 0.397982 6.39223 1.75741 6.06409C3.11684 5.73595 4.6169 6.76724 5.08567 8.40793ZM9.0702 7.42352C7.61702 7.79853 5.97633 6.48598 5.46068 4.4234C4.89816 2.36082 5.60131 0.438867 7.05449 0.063852C8.50768 -0.264286 10.1484 0.954512 10.7109 3.06397C11.2265 5.12655 10.5234 7.0485 9.0702 7.42352ZM22.2426 6.06409C23.602 6.39223 24.352 7.93916 23.8364 9.57985C23.3676 11.2205 21.8676 12.205 20.5081 11.9237C19.1487 11.5956 18.3987 10.0486 18.9143 8.40793C19.3831 6.76724 20.8832 5.78283 22.2426 6.06409ZM14.9298 7.42352C13.4766 7.0485 12.7735 5.07967 13.336 3.06397C13.8516 1.00139 15.5392 -0.311163 16.9455 0.063852C18.3987 0.438867 19.1018 2.40769 18.5393 4.4234C18.0237 6.48598 16.3361 7.79853 14.9298 7.42352Z" fill="var(--fill-0, white)"/>
</svg>
