<svg preserveAspectRatio="none" width="100%" height="100%" overflow="visible" style="display: block;" viewBox="0 0 9 7" fill="none" xmlns="http://www.w3.org/2000/svg">
<path id="Vector" d="M0 1.06667C0 0.783769 0.112381 0.512458 0.312419 0.312419C0.512458 0.112381 0.783769 0 1.06667 0H4.26667C4.54956 0 4.82087 0.112381 5.02091 0.312419C5.22095 0.512458 5.33333 0.783769 5.33333 1.06667V5.33333C5.33333 5.61623 5.22095 5.88754 5.02091 6.08758C4.82087 6.28762 4.54956 6.4 4.26667 6.4H1.06667C0.783769 6.4 0.512458 6.28762 0.312419 6.08758C0.112381 5.88754 0 5.61623 0 5.33333V1.06667ZM6.69493 1.65653C6.60636 1.7008 6.53185 1.76884 6.47976 1.85305C6.42767 1.93726 6.40005 2.03431 6.4 2.13333V4.26667C6.40005 4.36569 6.42767 4.46274 6.47976 4.54695C6.53185 4.63116 6.60636 4.69921 6.69493 4.74347L7.7616 5.2768C7.84289 5.31742 7.93321 5.3366 8.024 5.33251C8.11478 5.32842 8.20301 5.3012 8.28032 5.25344C8.35763 5.20567 8.42146 5.13895 8.46574 5.05959C8.51002 4.98023 8.53328 4.89088 8.53333 4.8V1.6C8.53328 1.50912 8.51002 1.41977 8.46574 1.34041C8.42146 1.26105 8.35763 1.19433 8.28032 1.14656C8.20301 1.0988 8.11478 1.07158 8.024 1.06749C7.93321 1.0634 7.84289 1.08258 7.7616 1.1232L6.69493 1.65653Z" fill="var(--fill-0, #F05350)"/>
</svg>
