<svg preserveAspectRatio="none" width="100%" height="100%" overflow="visible" style="display: block;" viewBox="0 0 7 12" fill="none" xmlns="http://www.w3.org/2000/svg">
<path id="order-arrow-down" d="M0.297076 9.47056L2.53021 11.7037C2.72047 11.894 2.97622 12 3.24444 12C3.51267 12 3.76842 11.894 3.95867 11.7037L6.19181 9.47056C6.58791 9.07446 6.58791 8.43509 6.19181 8.04211C5.99532 7.84561 5.73645 7.74581 5.47758 7.74581C5.21871 7.74581 4.95984 7.84561 4.76335 8.04211L4.2425 8.56296V0.998051C4.2425 0.446004 3.79649 0 3.24444 0C2.6924 0 2.24639 0.446004 2.24639 0.998051V8.56296L1.72554 8.04211C1.32943 7.646 0.690058 7.646 0.297076 8.04211C-0.0990253 8.43821 -0.0990253 9.07758 0.297076 9.47056Z" fill="var(--fill-0, #717E8F)"/>
</svg>
