<svg preserveAspectRatio="none" width="100%" height="100%" overflow="visible" style="display: block;" viewBox="0 0 2086 1356" fill="none" xmlns="http://www.w3.org/2000/svg">
<g id="Vector" opacity="0.5">
<path d="M781.645 593.532L781.56 593.296C780.375 589.999 781.715 586.326 784.779 584.64C786.763 583.501 789.231 583.412 791.344 584.408L792.095 584.723L792.427 584.019C793.423 581.906 795.383 580.404 797.638 580.019C801.074 579.369 804.492 581.332 805.677 584.629L805.762 584.865C806.473 586.843 806.302 589.032 805.363 590.859L799.698 601.883C799.487 602.331 799.067 602.642 798.596 602.811C798.077 602.997 797.556 603.025 797.107 602.814L785.721 597.917C783.834 597.106 782.356 595.51 781.645 593.532Z" fill="var(--fill-0, #C4E6FF)"/>
<path d="M1606.15 774.334C1605.79 748.109 1607.22 721.401 1616.08 696.716C1624.94 672.031 1642.16 649.361 1666.23 638.939C1681.86 632.174 1702.36 631.926 1713.64 644.684C1721.39 653.44 1722.87 666.017 1722.77 677.703C1722.46 712.527 1710.92 747.166 1690.28 775.218C1714.07 745.056 1745.88 721.272 1781.53 706.967C1803.79 698.033 1832.64 694.167 1848.85 711.839C1861.03 725.124 1860.78 746.422 1852.69 762.533C1844.6 778.644 1830.2 790.574 1815.65 801.216C1767.89 836.152 1714.35 862.367 1658.98 882.844C1624.2 895.703 1619.24 897.565 1613.32 859.433C1608.95 831.28 1606.55 802.823 1606.15 774.334Z" fill="var(--fill-0, #C4E6FF)"/>
<path d="M462.955 72.6235C488.193 65.4884 514.359 59.949 540.497 62.122C566.635 64.295 592.987 75.0523 609.284 95.6054C619.863 108.951 625.41 128.693 616.007 142.895C609.554 152.64 597.79 157.329 586.475 160.252C552.757 168.965 516.312 166.784 483.875 154.114C519.166 169.288 550.371 193.851 573.417 224.586C587.807 243.773 599.009 270.641 586.134 290.872C576.455 306.08 555.819 311.353 538.162 307.707C520.506 304.06 505.255 293.239 491.21 281.939C445.104 244.851 405.923 199.913 371.813 151.729C350.391 121.464 347.309 117.155 382.609 101.568C408.672 90.061 435.539 80.3781 462.955 72.6235Z" fill="var(--fill-0, #C4E6FF)"/>
<path fill-rule="evenodd" clip-rule="evenodd" d="M2004.24 871.75C1956.91 811.413 1900.82 728.652 1851.42 652.794C1837.86 644.272 1829.57 639.062 1829.51 639.02C1821.93 634.134 1740.72 596.238 1713.75 583.68C1713.26 584.169 1712.76 584.668 1712.23 585.131C1696.8 598.782 1672.75 600.19 1653.76 588.553C1630.91 574.531 1623.19 546.43 1636.56 525.889C1638.58 522.787 1641.02 519.972 1643.81 517.486C1659.25 503.836 1683.28 502.426 1702.28 514.063C1720.47 525.218 1729.02 545.29 1725.04 563.356C1768.84 585.381 1815.14 603.69 1843.08 608.229C1841.95 579.918 1829.2 531.539 1812.53 485.354C1794.31 486.766 1775.78 475.905 1767.01 456.783C1757.72 436.546 1762.03 412.872 1777.46 399.209L1777.47 399.21C1780.26 396.736 1783.36 394.657 1786.7 393.024C1808.71 382.251 1835.7 393.291 1846.88 417.661C1856.16 437.887 1851.85 461.559 1836.42 475.222C1835.71 475.854 1834.98 476.45 1834.23 477.032C1843.44 505.258 1871.33 590.41 1875.27 598.517C1875.3 598.564 1879.48 607.425 1886.33 621.929C1955.74 680.06 2031.21 745.668 2085.43 799.88C2085.49 799.952 1995.14 743.155 1921.79 697.04C1958.74 775.303 2004.25 871.695 2004.24 871.75ZM1782.3 449.261C1789.72 465.435 1806.8 473.18 1820.4 466.519C1822.32 465.574 1824.11 464.374 1825.71 462.953C1835.43 454.343 1837.84 438.817 1831.58 425.171C1824.17 409.008 1807.08 401.264 1793.5 407.926C1791.57 408.86 1789.79 410.058 1788.17 411.478C1778.46 420.077 1776.05 435.614 1782.3 449.261ZM1663.07 574.287C1675.88 582.145 1691.61 581.618 1701.34 573.032C1702.93 571.598 1704.35 569.966 1705.51 568.185C1713.76 555.511 1708.13 537.619 1692.96 528.318C1680.16 520.472 1664.44 520.988 1654.72 529.587C1653.1 531.019 1651.7 532.641 1650.53 534.433C1642.28 547.107 1647.91 564.986 1663.07 574.287ZM1865.99 653.262C1870.78 658.663 1879.31 658.905 1885.07 653.811C1890.82 648.727 1891.6 640.221 1886.82 634.832C1882.04 629.431 1873.49 629.188 1867.75 634.272C1861.99 639.366 1861.21 647.873 1865.99 653.262Z" fill="var(--fill-0, #C4E6FF)"/>
<path d="M644.859 705.341C682.328 726.974 701.767 815.982 680.408 852.977C670.824 869.578 652.541 871.67 631.672 859.621C608.432 846.204 600.1 825.583 581.603 814.904C562.631 803.95 540.607 807.045 517.367 793.627C496.024 781.305 489.169 764.699 498.753 748.099C520.112 711.103 606.915 683.435 644.859 705.341ZM577.949 659.122C573.856 678.26 557.431 690.279 541.285 685.384C525.614 680.763 516.46 661.566 521.302 642.227C525.669 622.614 542.294 611.344 557.965 615.965C573.637 620.586 582.79 639.783 577.949 659.122ZM624.014 672.438C607.121 667.743 598.188 644.879 605.019 620.998C611.376 596.843 629.718 581.504 646.612 586.199C663.232 591.367 672.713 613.283 666.082 637.913C659.25 661.794 640.908 677.132 624.014 672.438ZM765.233 735.631C777.071 746.892 775.623 766.925 760.821 780.514C746.494 794.376 725.566 795.573 713.455 784.786C701.617 773.525 703.065 753.492 717.866 739.904C732.193 726.042 753.121 724.844 765.233 735.631ZM683.302 706.667C670.789 694.384 675.176 670.356 692.642 653.247C709.908 635.391 734.65 631.968 746.688 643.978C759.201 656.261 754.814 680.289 737.348 697.398C720.082 715.255 695.34 718.677 683.302 706.667Z" fill="var(--fill-0, #C4E6FF)"/>
<path d="M1586.15 160.423C1555.56 129.83 1559.82 38.8233 1590.03 8.6169C1603.58 -4.93725 1621.78 -2.22643 1638.82 14.8131C1657.8 33.7889 1660.51 55.8628 1675.61 70.966C1691.1 86.4564 1713.17 89.1672 1732.15 108.143C1749.58 125.57 1751.9 143.384 1738.35 156.938C1708.14 187.144 1617.13 191.404 1586.15 160.423ZM1638.82 222.385C1647.73 204.958 1666.7 197.6 1681.03 206.507C1694.97 215.027 1698.85 235.939 1689.16 253.366C1679.87 271.18 1660.89 277.764 1646.95 269.244C1633.01 260.724 1629.14 239.812 1638.82 222.385ZM1597.77 197.6C1612.87 206.507 1615.58 230.905 1602.8 252.204C1590.41 273.891 1568.73 283.96 1553.62 275.053C1538.91 265.758 1535.42 242.135 1548.2 220.062C1560.98 198.762 1582.67 188.693 1597.77 197.6ZM1477.72 100.011C1469.2 86.0692 1475.78 67.0934 1493.6 57.7991C1511.02 48.1176 1531.55 52.3774 1540.46 65.9316C1548.98 79.873 1542.39 98.8488 1524.58 108.143C1507.15 117.825 1486.63 113.565 1477.72 100.011ZM1549.36 149.193C1558.27 164.296 1547.81 186.37 1526.51 198.375C1505.22 211.155 1480.43 208.056 1471.91 193.341C1463 178.237 1473.46 156.163 1494.76 144.158C1516.06 131.379 1540.84 134.477 1549.36 149.193Z" fill="var(--fill-0, #C4E6FF)"/>
<path d="M1940.86 265.341C1978.33 286.974 1997.77 375.982 1976.41 412.977C1966.82 429.578 1948.54 431.67 1927.67 419.621C1904.43 406.204 1896.1 385.583 1877.6 374.904C1858.63 363.95 1836.61 367.045 1813.37 353.627C1792.02 341.305 1785.17 324.699 1794.75 308.099C1816.11 271.103 1902.91 243.435 1940.86 265.341ZM1873.95 219.122C1869.86 238.26 1853.43 250.279 1837.29 245.384C1821.61 240.763 1812.46 221.566 1817.3 202.227C1821.67 182.614 1838.29 171.344 1853.97 175.965C1869.64 180.586 1878.79 199.784 1873.95 219.122ZM1920.01 232.438C1903.12 227.743 1894.19 204.879 1901.02 180.998C1907.38 156.843 1925.72 141.504 1942.61 146.199C1959.23 151.367 1968.71 173.283 1962.08 197.913C1955.25 221.794 1936.91 237.133 1920.01 232.438ZM2061.23 295.631C2073.07 306.892 2071.62 326.925 2056.82 340.514C2042.49 354.376 2021.57 355.573 2009.45 344.786C1997.62 333.525 1999.06 313.492 2013.87 299.904C2028.19 286.042 2049.12 284.844 2061.23 295.631ZM1979.3 266.667C1966.79 254.384 1971.18 230.356 1988.64 213.247C2005.91 195.391 2030.65 191.968 2042.69 203.978C2055.2 216.261 2050.81 240.289 2033.35 257.398C2016.08 275.255 1991.34 278.677 1979.3 266.667Z" fill="var(--fill-0, #C4E6FF)"/>
<path d="M607.322 502.67C608.886 505.246 612.08 506.438 615.001 505.389C615.519 505.202 615.956 504.939 616.423 504.611L619.91 514.315C620.063 514.739 619.804 515.204 619.428 515.339L617.92 515.881C617.496 516.033 617.048 515.822 616.896 515.398L614.458 508.615L610.054 515.304L611.561 514.762C612.362 514.474 613.322 514.927 613.61 515.728L613.898 516.529C614.033 516.905 613.775 517.371 613.398 517.506L605.108 520.485C603.412 521.095 601.619 520.25 601.01 518.554L596.676 506.495C596.389 505.695 595.428 505.242 594.627 505.53C593.78 505.835 592.883 505.412 592.578 504.564C592.291 503.763 592.696 502.82 593.544 502.515C596.041 501.618 598.794 502.916 599.691 505.412L601.147 509.463C602.316 504.575 606.38 503.008 607.322 502.67ZM613.139 495.473L615.07 491.375L617.356 497.734C618.253 500.231 616.938 502.937 614.442 503.834C611.945 504.731 609.209 503.481 608.312 500.984L606.027 494.625L610.125 496.557L613.139 495.473ZM611.102 500.46C611.479 500.325 611.737 499.86 611.585 499.436C611.449 499.059 610.937 498.818 610.56 498.953C610.136 499.105 609.942 499.601 610.077 499.977C610.23 500.401 610.678 500.613 611.102 500.46ZM614.87 499.106C615.247 498.971 615.505 498.506 615.353 498.082C615.218 497.705 614.705 497.463 614.329 497.599C613.905 497.751 613.71 498.246 613.846 498.623C613.998 499.047 614.446 499.258 614.87 499.106Z" fill="var(--fill-0, #C4E6FF)"/>
<path d="M1784.32 538.67C1785.89 541.246 1789.08 542.438 1792 541.389C1792.52 541.202 1792.96 540.939 1793.42 540.611L1796.91 550.315C1797.06 550.739 1796.8 551.204 1796.43 551.339L1794.92 551.881C1794.5 552.033 1794.05 551.822 1793.9 551.398L1791.46 544.615L1787.05 551.304L1788.56 550.762C1789.36 550.474 1790.32 550.927 1790.61 551.728L1790.9 552.529C1791.03 552.905 1790.78 553.371 1790.4 553.506L1782.11 556.485C1780.41 557.095 1778.62 556.25 1778.01 554.554L1773.68 542.495C1773.39 541.695 1772.43 541.242 1771.63 541.53C1770.78 541.834 1769.88 541.412 1769.58 540.564C1769.29 539.763 1769.7 538.82 1770.54 538.515C1773.04 537.618 1775.79 538.916 1776.69 541.412L1778.15 545.463C1779.32 540.575 1783.38 539.008 1784.32 538.67ZM1790.14 531.473L1792.07 527.375L1794.36 533.734C1795.25 536.231 1793.94 538.937 1791.44 539.834C1788.95 540.731 1786.21 539.481 1785.31 536.984L1783.03 530.625L1787.12 532.557L1790.14 531.473ZM1788.1 536.46C1788.48 536.325 1788.74 535.86 1788.58 535.436C1788.45 535.059 1787.94 534.818 1787.56 534.953C1787.14 535.105 1786.94 535.601 1787.08 535.977C1787.23 536.401 1787.68 536.613 1788.1 536.46ZM1791.87 535.106C1792.25 534.971 1792.51 534.505 1792.35 534.082C1792.22 533.705 1791.71 533.463 1791.33 533.599C1790.9 533.751 1790.71 534.246 1790.85 534.623C1791 535.047 1791.45 535.258 1791.87 535.106Z" fill="var(--fill-0, #C4E6FF)"/>
<path d="M1565.46 539.5C1566.26 539.213 1567.22 539.665 1567.51 540.466L1573.2 556.293C1573.35 556.717 1573.8 556.928 1574.22 556.776L1593.06 550.005C1593.86 549.717 1594.82 550.17 1595.11 550.97C1595.42 551.818 1594.95 552.732 1594.15 553.019L1575.31 559.791C1573.19 560.552 1570.94 559.496 1570.18 557.376L1564.49 541.55C1564.21 540.749 1564.61 539.805 1565.46 539.5ZM1571.61 542.397C1571.32 541.597 1571.73 540.653 1572.57 540.348L1581.62 537.098C1582.42 536.81 1583.38 537.263 1583.67 538.064C1583.97 538.912 1583.5 539.825 1582.7 540.113L1573.66 543.363C1572.81 543.668 1571.91 543.245 1571.61 542.397ZM1580.23 542.704C1581.03 542.416 1581.99 542.868 1582.28 543.669C1582.58 544.517 1582.11 545.43 1581.31 545.718L1575.28 547.885C1574.43 548.19 1573.54 547.767 1573.23 546.919C1572.95 546.119 1573.35 545.175 1574.2 544.87L1580.23 542.704ZM1587.88 545.059C1588.68 544.771 1589.64 545.224 1589.93 546.024C1590.24 546.872 1589.77 547.786 1588.97 548.073L1576.91 552.407C1576.06 552.712 1575.16 552.289 1574.86 551.441C1574.57 550.641 1574.98 549.697 1575.82 549.392L1587.88 545.059Z" fill="var(--fill-0, #C4E6FF)"/>
<path d="M484.012 677.709C490.654 675.322 497.615 677.82 499.544 683.19C501.491 688.607 497.696 694.917 491.054 697.304C489.217 697.964 487.403 698.244 485.645 698.237C484.806 699.602 483.023 701.892 479.914 703.009C479.725 703.077 479.567 703.081 479.469 702.956C479.371 702.832 479.304 702.644 479.411 702.499C479.394 702.451 480.628 699.668 480.33 697.062C478.072 695.959 476.321 694.195 475.474 691.84C473.544 686.47 477.323 680.112 484.012 677.709Z" fill="var(--fill-0, #C4E6FF)"/>
<path d="M1707.52 366.167L1707.86 367.109C1711.55 366.58 1715.22 368.663 1716.53 372.29L1716.85 373.185C1717.65 375.399 1719.22 377.278 1721.28 378.402L1721.74 378.661C1722.34 378.979 1722.65 379.558 1722.62 380.208C1722.57 380.81 1722.12 381.343 1721.56 381.546L1703.47 388.047C1702.86 388.267 1702.17 388.14 1701.75 387.707C1701.31 387.226 1701.19 386.58 1701.44 385.956L1701.63 385.461C1702.5 383.288 1702.57 380.816 1701.78 378.602L1701.45 377.707C1700.15 374.08 1701.61 370.152 1704.84 368.192L1704.5 367.25C1704.22 366.45 1704.62 365.506 1705.47 365.201C1706.27 364.914 1707.23 365.366 1707.52 366.167ZM1714.14 389.319C1713.34 389.606 1712.43 389.611 1711.67 389.249C1710.9 388.887 1710.33 388.188 1710.04 387.387L1716.07 385.221C1716.36 386.021 1716.31 386.941 1715.95 387.709C1715.59 388.477 1714.89 389.048 1714.14 389.319Z" fill="var(--fill-0, #C4E6FF)"/>
<path d="M641.201 319.793C644.792 321.448 647.307 329.386 645.673 332.932C644.94 334.523 643.294 334.866 641.294 333.945C639.066 332.918 638.135 331.111 636.362 330.294C634.544 329.457 632.565 329.923 630.338 328.896C628.292 327.954 627.529 326.5 628.262 324.909C629.896 321.363 637.564 318.118 641.201 319.793ZM634.724 316.148C634.512 317.924 633.118 319.155 631.608 318.845C630.143 318.556 629.149 316.885 629.428 315.085C629.661 313.263 631.079 312.098 632.544 312.387C634.009 312.677 635.003 314.347 634.724 316.148ZM639.028 316.974C637.452 316.688 636.447 314.682 636.869 312.451C637.245 310.2 638.786 308.65 640.362 308.936C641.918 309.267 642.965 311.182 642.568 313.479C642.146 315.71 640.605 317.259 639.028 316.974ZM652.41 321.542C653.582 322.467 653.618 324.303 652.384 325.663C651.197 327.045 649.302 327.329 648.109 326.449C646.938 325.523 646.902 323.688 648.135 322.327C649.323 320.946 651.217 320.661 652.41 321.542ZM644.711 319.592C643.469 318.579 643.667 316.355 645.113 314.652C646.535 312.882 648.758 312.364 649.954 313.356C651.196 314.369 650.998 316.592 649.552 318.296C648.13 320.065 645.907 320.584 644.711 319.592Z" fill="var(--fill-0, #C4E6FF)"/>
<path d="M1748.48 292.076C1752.07 293.731 1754.59 301.668 1752.96 305.214C1752.22 306.805 1750.58 307.149 1748.58 306.227C1746.35 305.201 1745.42 303.394 1743.64 302.577C1741.83 301.739 1739.85 302.205 1737.62 301.179C1735.57 300.236 1734.81 298.782 1735.54 297.191C1737.18 293.645 1744.85 290.4 1748.48 292.076ZM1742.01 288.43C1741.79 290.206 1740.4 291.438 1738.89 291.127C1737.43 290.838 1736.43 289.168 1736.71 287.367C1736.94 285.546 1738.36 284.381 1739.83 284.67C1741.29 284.959 1742.29 286.63 1742.01 288.43ZM1746.31 289.256C1744.73 288.97 1743.73 286.964 1744.15 284.734C1744.53 282.482 1746.07 280.933 1747.64 281.218C1749.2 281.549 1750.25 283.465 1749.85 285.762C1749.43 287.992 1747.89 289.542 1746.31 289.256ZM1759.69 293.824C1760.86 294.75 1760.9 296.585 1759.67 297.946C1758.48 299.327 1756.58 299.612 1755.39 298.731C1754.22 297.806 1754.18 295.97 1755.42 294.61C1756.6 293.228 1758.5 292.944 1759.69 293.824ZM1751.99 291.875C1750.75 290.861 1750.95 288.638 1752.4 286.935C1753.82 285.165 1756.04 284.646 1757.24 285.638C1758.48 286.651 1758.28 288.875 1756.83 290.578C1755.41 292.348 1753.19 292.867 1751.99 291.875Z" fill="var(--fill-0, #C4E6FF)"/>
<path d="M747.881 865.399C747.789 864.847 748.108 864.253 748.673 864.05C749.003 863.932 749.4 864.002 749.737 864.2L750.911 864.948L753.36 864.068C753.925 863.865 754.639 863.927 755.216 864.199L756.351 864.695L758.989 863.747C759.601 863.527 760.306 863.859 760.526 864.471L760.932 865.602C761.694 867.721 760.591 869.979 758.518 870.724L755.221 871.909L755.51 873.454L749.151 872.335L747.881 865.399ZM754.09 865.508C753.666 865.66 753.472 866.155 753.607 866.532C753.76 866.956 754.208 867.167 754.632 867.015C755.009 866.879 755.267 866.414 755.115 865.99C754.979 865.614 754.467 865.372 754.09 865.508ZM755.85 875.14L759.625 885.644C759.93 886.492 759.46 887.406 758.659 887.693L757.152 888.235C756.304 888.54 755.408 888.117 755.103 887.27L753.156 881.853C752.199 882.888 751.028 883.628 749.709 884.102C748.343 884.593 746.97 884.767 745.62 884.561L747.566 889.978C747.871 890.826 747.401 891.739 746.601 892.027L745.093 892.569C744.245 892.873 743.349 892.451 743.044 891.603L739.151 880.769C737.599 880.742 736.109 880.001 735.207 878.676L734.748 877.99C734.272 877.257 734.502 876.27 735.218 875.747C735.951 875.271 736.938 875.501 737.462 876.217L737.857 876.873C738.282 877.465 739.064 877.716 739.724 877.479L749.427 873.991L755.85 875.14Z" fill="var(--fill-0, #C4E6FF)"/>
<path d="M956.558 1237.53C961.285 1241.68 961.575 1249.1 957.195 1254.09L870.167 1353.3C867.609 1356.21 863.171 1356.5 860.254 1353.95C857.336 1351.39 857.045 1346.95 859.604 1344.03L900.602 1297.28C903.516 1293.96 903.183 1288.9 899.857 1285.99L899.093 1285.32C895.77 1282.41 890.719 1282.74 887.808 1286.06L846.807 1332.81C844.245 1335.73 839.8 1336.03 836.879 1333.46C833.957 1330.9 833.666 1326.46 836.229 1323.53L877.222 1276.81C880.136 1273.48 879.805 1268.43 876.482 1265.52L875.71 1264.84C872.389 1261.93 867.335 1262.26 864.422 1265.58L823.412 1312.33C820.856 1315.24 816.423 1315.53 813.505 1312.98C810.58 1310.43 810.285 1305.98 812.846 1303.06L853.836 1256.31C856.751 1252.99 856.416 1247.93 853.086 1245.01L852.328 1244.35C849.005 1241.45 843.958 1241.78 841.047 1245.1L800.044 1291.84C797.482 1294.76 793.037 1295.05 790.115 1292.49C787.194 1289.92 786.902 1285.48 789.465 1282.56L830.458 1235.83C833.372 1232.51 833.041 1227.45 829.718 1224.54L828.947 1223.86C825.625 1220.95 820.571 1221.28 817.658 1224.6L776.654 1271.36C774.096 1274.27 769.657 1274.57 766.738 1272.01C763.814 1269.45 763.521 1265 766.084 1262.08L807.084 1215.35C810.001 1212.02 809.667 1206.96 806.337 1204.05L805.564 1203.37C802.242 1200.47 797.194 1200.8 794.283 1204.12L753.279 1250.88C750.718 1253.8 746.274 1254.09 743.355 1251.52C740.439 1248.96 740.15 1244.52 742.71 1241.6L783.71 1194.87C786.624 1191.55 786.293 1186.49 782.97 1183.58L782.198 1182.9C778.876 1179.99 773.823 1180.32 770.91 1183.64L729.891 1230.4C727.332 1233.31 722.895 1233.6 719.978 1231.05C717.06 1228.49 716.769 1224.05 719.328 1221.13L760.326 1174.38C763.24 1171.06 762.907 1166 759.581 1163.09L758.816 1162.42C755.494 1159.51 750.443 1159.84 747.532 1163.16L706.525 1209.91C703.966 1212.82 699.527 1213.12 696.607 1210.56C693.684 1208 693.391 1203.55 695.953 1200.63L736.944 1153.89C739.858 1150.57 739.525 1145.51 736.199 1142.6L735.435 1141.93C732.112 1139.02 727.061 1139.36 724.15 1142.68L683.15 1189.42C680.587 1192.35 676.141 1192.64 673.218 1190.08C670.29 1187.52 669.997 1183.06 672.564 1180.14L713.562 1133.42C716.477 1130.1 716.146 1125.04 712.823 1122.13L712.053 1121.45C708.731 1118.54 703.677 1118.87 700.764 1122.19L659.768 1168.94C657.205 1171.86 652.759 1172.15 649.836 1169.59C646.908 1167.03 646.615 1162.57 649.182 1159.65L690.177 1112.93C693.093 1109.61 692.76 1104.55 689.434 1101.64L688.671 1100.97C685.349 1098.06 680.298 1098.39 677.386 1101.71L636.386 1148.46C633.824 1151.38 629.379 1151.68 626.457 1149.11C623.536 1146.55 623.245 1142.11 625.807 1139.18L666.808 1092.45C669.725 1089.12 669.391 1084.06 666.061 1081.15L665.288 1080.47C661.965 1077.57 656.918 1077.9 654.007 1081.22L612.997 1127.97C610.438 1130.89 605.999 1131.18 603.08 1128.62C600.156 1126.06 599.864 1121.62 602.426 1118.7L645.415 1069.69C647.234 1067.62 647.026 1064.46 644.949 1062.65C642.877 1060.83 639.728 1061.04 637.913 1063.11L592.919 1114.41C591.466 1116.07 588.945 1116.24 587.29 1114.78C585.635 1113.33 585.471 1110.81 586.923 1109.16L632.747 1056.92C634.104 1055.37 633.95 1053.02 632.402 1051.66C630.855 1050.31 628.501 1050.46 627.145 1052.01L581.323 1104.25C579.869 1105.91 577.347 1106.08 575.689 1104.62C574.028 1103.17 573.862 1100.65 575.318 1098.99L621.142 1046.75C622.496 1045.21 622.345 1042.86 620.805 1041.5C619.259 1040.14 616.9 1040.29 615.541 1041.84L569.71 1094.09C568.257 1095.75 565.736 1095.91 564.08 1094.46C562.425 1093.01 562.261 1090.49 563.713 1088.83L609.537 1036.58C610.894 1035.04 610.74 1032.68 609.192 1031.33C607.645 1029.97 605.291 1030.12 603.935 1031.67L558.097 1083.92C556.645 1085.57 554.124 1085.74 552.471 1084.28C550.822 1082.83 550.66 1080.32 552.109 1078.67L597.94 1026.42C599.297 1024.88 599.143 1022.52 597.595 1021.16C596.048 1019.81 593.695 1019.96 592.338 1021.51L546.5 1073.76C545.047 1075.42 542.525 1075.58 540.867 1074.13C539.206 1072.67 539.04 1070.15 540.496 1068.49L586.333 1016.25C587.688 1014.71 587.536 1012.36 585.994 1011.01C584.45 1009.65 582.097 1009.8 580.741 1011.35L534.896 1063.59C533.446 1065.24 530.931 1065.41 529.274 1063.96C527.611 1062.51 527.443 1059.99 528.898 1058.33L574.715 1006.09C576.072 1004.54 575.918 1002.19 574.37 1000.83C572.823 999.472 570.469 999.627 569.112 1001.17L523.29 1053.42C521.837 1055.08 519.316 1055.24 517.66 1053.79C516.006 1052.34 515.842 1049.82 517.294 1048.16L563.117 995.926C564.475 994.379 564.32 992.025 562.773 990.668C561.226 989.312 558.872 989.466 557.516 991.013L511.7 1043.25C510.244 1044.91 507.716 1045.08 506.059 1043.62C504.406 1042.16 504.243 1039.64 505.696 1037.99L551.52 985.751C552.876 984.204 552.72 981.85 551.171 980.496C549.626 979.145 547.279 979.301 545.925 980.844L500.096 1033.08C498.642 1034.74 496.121 1034.91 494.462 1033.46C492.802 1032 492.636 1029.48 494.091 1027.82L539.915 975.582C541.268 974.039 541.116 971.691 539.575 970.335C538.03 968.977 535.677 969.13 534.321 970.675L488.484 1022.92C487.03 1024.58 484.509 1024.75 482.854 1023.29C481.199 1021.84 481.034 1019.32 482.486 1017.66L528.31 965.415C529.667 963.868 529.511 961.514 527.962 960.16C526.416 958.809 524.069 958.964 522.716 960.507L476.886 1012.75C475.433 1014.41 472.912 1014.57 471.256 1013.12C469.602 1011.66 469.437 1009.14 470.89 1007.49L516.713 955.254C518.069 953.708 517.913 951.353 516.364 949.999C514.819 948.648 512.472 948.803 511.118 950.346L465.274 1002.59C463.82 1004.25 461.299 1004.41 459.64 1002.96C457.98 1001.5 457.813 998.979 459.269 997.32L505.1 945.078C506.457 943.532 506.301 941.177 504.752 939.823C503.206 938.473 500.859 938.628 499.506 940.171L453.669 992.42C452.219 994.074 449.704 994.241 448.047 992.794C446.385 991.343 446.217 988.818 447.672 987.159L493.496 934.925C494.857 933.374 494.701 931.014 493.147 929.656C491.598 928.3 489.243 928.456 487.886 930.004L442.064 982.252C440.611 983.908 438.09 984.073 436.434 982.619C434.779 981.166 434.615 978.647 436.067 976.992L481.891 924.757C483.248 923.21 483.094 920.855 481.546 919.498C479.999 918.142 477.646 918.296 476.289 919.843L430.459 972.084C429.01 973.737 426.495 973.903 424.841 972.454C423.185 971.004 423.018 968.486 424.47 966.831L470.294 914.582C471.65 913.035 471.494 910.681 469.945 909.327C468.4 907.976 466.052 908.131 464.699 909.674L418.87 961.915C417.416 963.572 414.894 963.738 413.236 962.286C411.575 960.832 411.409 958.306 412.865 956.647L458.688 904.413C460.042 902.869 459.89 900.521 458.348 899.165C456.804 897.807 454.451 897.96 453.095 899.506L407.257 951.755C405.804 953.412 403.283 953.576 401.627 952.122C399.972 950.669 399.808 948.15 401.26 946.495L447.084 894.245C448.44 892.699 448.284 890.344 446.735 888.99C445.19 887.639 442.843 887.795 441.489 889.337L395.637 941.588C394.187 943.241 391.673 943.406 390.019 941.958C388.363 940.508 388.197 937.989 389.649 936.334L435.486 884.085C436.843 882.538 436.687 880.184 435.138 878.829C433.592 877.479 431.246 877.634 429.892 879.177L384.041 931.427C382.59 933.08 380.075 933.248 378.418 931.801C376.756 930.35 376.588 927.824 378.043 926.165L423.881 873.901C425.234 872.358 425.08 870.01 423.537 868.657C421.994 867.305 419.648 867.458 418.295 869L372.443 921.251C370.993 922.905 368.478 923.072 366.821 921.625C365.159 920.174 364.991 917.648 366.446 915.989L412.276 863.748C413.633 862.202 413.477 859.847 411.928 858.493C410.383 857.142 408.036 857.298 406.682 858.84L360.83 911.091C359.38 912.744 356.866 912.909 355.212 911.461C353.556 910.011 353.39 907.492 354.842 905.837L400.672 853.595C402.033 852.044 401.877 849.683 400.324 848.325C398.774 846.97 396.42 847.126 395.062 848.674L349.226 900.923C347.779 902.572 345.271 902.739 343.619 901.296C341.961 899.849 341.793 897.331 343.244 895.676L431.148 795.442C436.153 789.745 444.581 788.961 449.965 793.691L956.558 1237.53Z" fill="var(--fill-0, #C4E6FF)"/>
<path d="M116.848 925.425C112.629 930.092 105.211 930.278 100.281 925.827L2.31757 837.403C-0.561761 834.803 -0.789239 830.362 1.80946 827.482C4.40907 824.6 8.8523 824.372 11.7333 826.972L57.8944 868.628C61.1764 871.589 66.2384 871.328 69.1975 868.043L69.8778 867.288C72.8336 864.008 72.5723 858.953 69.2939 855.994L23.13 814.336C20.2452 811.733 20.017 807.284 22.6201 804.399C25.2235 801.514 29.6729 801.286 32.5576 803.89L78.7005 845.54C81.9808 848.501 87.0406 848.242 90.0007 844.961L90.6885 844.198C93.6476 840.919 93.3882 835.861 90.109 832.901L43.9465 791.233C41.0694 788.636 40.8385 784.2 43.4303 781.318C46.0282 778.429 50.477 778.197 53.3615 780.799L99.5257 822.447C102.809 825.409 107.874 825.145 110.832 821.858L111.506 821.108C114.458 817.827 114.195 812.776 110.919 809.819L64.7641 768.157C61.8799 765.554 61.6519 761.105 64.2549 758.221C66.8585 755.335 71.3082 755.107 74.1931 757.711L120.336 799.362C123.616 802.322 128.676 802.063 131.636 798.782L132.323 798.02C135.282 794.74 135.023 789.682 131.743 786.722L85.5746 745.06C82.6937 742.46 82.4639 738.018 85.0612 735.135C87.6619 732.248 92.1111 732.019 94.9953 734.622L141.146 776.281C144.429 779.244 149.494 778.981 152.453 775.693L153.14 774.93C156.092 771.649 155.829 766.597 152.552 763.64L106.384 721.978C103.501 719.375 103.274 714.927 105.878 712.045C108.48 709.166 112.924 708.94 115.804 711.54L161.955 753.198C165.236 756.159 170.295 755.9 173.256 752.619L173.943 751.856C176.903 748.576 176.643 743.519 173.364 740.559L127.193 698.882C124.313 696.282 124.086 691.841 126.684 688.96C129.284 686.079 133.727 685.851 136.608 688.451L182.769 730.107C186.051 733.068 191.113 732.807 194.072 729.522L194.753 728.766C197.709 725.486 197.448 720.431 194.17 717.473L148.011 675.808C145.131 673.208 144.901 668.765 147.499 665.882C150.099 662.995 154.549 662.765 157.433 665.368L203.587 707.017C206.869 709.979 211.931 709.717 214.89 706.433L215.57 705.678C218.526 702.397 218.264 697.342 214.986 694.384L168.822 652.725C165.937 650.121 165.707 645.672 168.308 642.785C170.913 639.894 175.369 639.664 178.258 642.272L224.393 683.928C227.673 686.89 232.733 686.631 235.694 683.349L236.38 682.589C239.339 679.308 239.08 674.25 235.8 671.29L189.64 629.636C186.754 627.032 186.525 622.583 189.126 619.696C191.731 616.805 196.187 616.575 199.075 619.183L245.206 660.835C248.488 663.798 253.551 663.537 256.511 660.252L257.19 659.499C260.146 656.218 259.884 651.163 256.606 648.205L210.442 606.546C207.557 603.943 207.329 599.494 209.932 596.61C212.535 593.725 216.985 593.497 219.87 596.1L266.02 637.759C269.304 640.723 274.369 640.46 277.327 637.172L278.015 636.408C280.967 633.128 280.705 628.076 277.429 625.118L231.266 583.45C228.385 580.85 228.156 576.408 230.753 573.525C233.354 570.638 237.803 570.408 240.688 573.012L289.076 616.69C291.124 618.539 294.283 618.375 296.128 616.324C297.97 614.278 297.806 611.126 295.762 609.282L245.103 563.567C243.467 562.09 243.338 559.567 244.815 557.932C246.291 556.298 248.812 556.17 250.447 557.645L302.028 604.204C303.555 605.583 305.912 605.462 307.29 603.934C308.668 602.407 308.548 600.051 307.02 598.673L255.427 552.115C253.79 550.638 253.66 548.114 255.135 546.476C256.613 544.837 259.14 544.706 260.779 546.185L312.36 592.744C313.884 594.12 316.234 594.003 317.614 592.483C319 590.956 318.882 588.595 317.352 587.214L265.75 540.647C264.114 539.171 263.986 536.648 265.463 535.013C266.939 533.379 269.46 533.25 271.095 534.725L322.69 581.285C324.218 582.664 326.575 582.543 327.953 581.015C329.332 579.487 329.211 577.131 327.683 575.753L276.088 529.18C274.454 527.704 274.327 525.182 275.805 523.549C277.28 521.921 279.795 521.795 281.426 523.267L333.014 569.833C334.542 571.212 336.898 571.091 338.277 569.563C339.655 568.035 339.535 565.68 338.007 564.301L286.413 517.728C284.777 516.251 284.646 513.727 286.122 512.09C287.599 510.45 290.127 510.32 291.766 511.799L343.346 558.372C344.87 559.748 347.22 559.629 348.598 558.106C349.977 556.582 349.858 554.227 348.332 552.849L296.744 506.269C295.111 504.795 294.98 502.278 296.45 500.642C297.925 499 300.452 498.868 302.09 500.346L353.677 546.898C355.205 548.277 357.561 548.156 358.94 546.628C360.318 545.1 360.197 542.745 358.67 541.366L307.076 494.808C305.44 493.332 305.312 490.809 306.789 489.174C308.265 487.54 310.786 487.411 312.42 488.887L364.001 535.446C365.529 536.825 367.885 536.704 369.264 535.176C370.642 533.648 370.521 531.293 368.994 529.914L317.408 483.364C315.769 481.884 315.641 479.354 317.124 477.718C318.603 476.085 321.124 475.959 322.759 477.435L374.34 523.993C375.867 525.372 378.223 525.249 379.599 523.72C380.972 522.194 380.85 519.845 379.326 518.469L327.739 471.905C326.103 470.428 325.973 467.904 327.448 466.266C328.926 464.626 331.453 464.496 333.092 465.975L384.672 512.534C386.196 513.909 388.546 513.79 389.924 512.268C391.303 510.743 391.184 508.388 389.658 507.01L338.063 460.437C336.427 458.961 336.298 456.438 337.776 454.802C339.252 453.168 341.773 453.04 343.408 454.515L395.003 501.074C396.53 502.453 398.886 502.33 400.262 500.8C401.635 499.274 401.513 496.925 399.989 495.55L348.402 448.985C346.766 447.509 346.638 444.986 348.115 443.351C349.591 441.717 352.112 441.588 353.747 443.064L405.327 489.622C406.854 491 409.21 490.878 410.586 489.348C411.959 487.822 411.837 485.473 410.314 484.098L358.725 437.518C357.089 436.041 356.959 433.517 358.435 431.88C359.912 430.24 362.44 430.109 364.079 431.588L415.666 478.154C417.193 479.533 419.55 479.41 420.925 477.881C422.298 476.355 422.176 474.006 420.652 472.63L369.057 426.059C367.424 424.585 367.293 422.068 368.763 420.432C370.237 418.79 372.765 418.658 374.403 420.136L425.982 466.696C427.514 468.078 429.877 467.955 431.256 466.422C432.633 464.891 432.511 462.535 430.982 461.156L379.389 414.598C377.753 413.122 377.625 410.599 379.102 408.964C380.578 407.33 383.099 407.201 384.733 408.677L436.314 455.235C437.842 456.614 440.198 456.494 441.577 454.966C442.955 453.438 442.834 451.082 441.307 449.704L389.72 403.139C388.088 401.666 387.958 399.149 389.429 397.516C390.903 395.88 393.424 395.75 395.058 397.225L446.653 443.784C448.18 445.162 450.536 445.039 451.912 443.509C453.285 441.983 453.162 439.634 451.639 438.259L400.052 391.695C398.416 390.217 398.285 387.694 399.761 386.056C401.239 384.416 403.766 384.286 405.405 385.765L456.985 432.323C458.509 433.699 460.859 433.58 462.237 432.058C463.616 430.533 463.497 428.178 461.971 426.8L410.376 380.227C408.74 378.75 408.611 376.227 410.089 374.592C411.565 372.958 414.086 372.829 415.721 374.305L467.315 420.864C468.843 422.242 471.199 422.12 472.575 420.59C473.948 419.064 473.826 416.715 472.302 415.339L420.706 368.752C419.074 367.279 418.945 364.763 420.416 363.129C421.889 361.494 424.411 361.363 426.045 362.839L477.639 409.411C479.167 410.79 481.523 410.667 482.899 409.138C484.272 407.612 484.15 405.263 482.626 403.887L431.03 357.301C429.398 355.827 429.266 353.309 430.736 351.673C432.211 350.032 434.739 349.899 436.377 351.378L487.987 397.952C489.51 399.327 491.86 399.206 493.235 397.682C494.609 396.159 494.488 393.81 492.966 392.436L441.37 345.849C439.737 344.375 439.606 341.858 441.075 340.221C442.55 338.58 445.078 338.448 446.716 339.926L498.302 386.492C499.83 387.871 502.186 387.748 503.562 386.218C504.935 384.692 504.813 382.343 503.289 380.968L451.693 334.381C450.061 332.908 449.931 330.391 451.403 328.758C452.876 327.122 455.397 326.992 457.032 328.467L508.619 375.033C510.15 376.416 512.513 376.293 513.893 374.759C515.27 373.229 515.148 370.872 513.62 369.493L462.025 322.921C460.397 321.452 460.265 318.942 461.731 317.31C463.201 315.672 465.722 315.54 467.356 317.015L566.335 406.33C571.961 411.415 572.625 419.853 567.819 425.169L116.848 925.425Z" fill="var(--fill-0, #C4E6FF)"/>
</g>
</svg>
