<svg width="170" height="57" viewBox="0 0 170 57" fill="none" xmlns="http://www.w3.org/2000/svg">
<g clip-path="url(#clip0_1_49980)">
<path d="M156.462 0.179872H13.5454C13.0244 0.179872 12.5097 0.179872 11.9902 0.182713C11.5552 0.185555 11.1238 0.193809 10.6847 0.200756C9.73072 0.211981 8.77902 0.295905 7.83783 0.451798C6.89797 0.611084 5.98755 0.911384 5.13736 1.34254C4.28821 1.77735 3.51232 2.34233 2.83784 3.017C2.15981 3.68977 1.59462 4.4674 1.164 5.31999C0.7322 6.17088 0.432786 7.08269 0.276102 8.02393C0.117929 8.96397 0.0328146 9.91486 0.0215228 10.8681C0.00833918 11.3036 0.00694695 11.7406 0 12.1763V45.0134C0.00694695 45.4545 0.00833918 45.8818 0.0215228 46.3231C0.032818 47.2762 0.117932 48.2271 0.276102 49.1671C0.432353 50.1089 0.731785 51.0212 1.164 51.8724C1.59442 52.7222 2.15969 53.4967 2.83784 54.1658C3.50976 54.8434 4.28616 55.4088 5.13736 55.8403C5.98754 56.2726 6.89786 56.5747 7.83783 56.7364C8.77918 56.8911 9.73078 56.975 10.6847 56.9876C11.1238 56.9972 11.5552 57.0028 11.9902 57.0028C12.5097 57.0056 13.0245 57.0056 13.5454 57.0056H156.462C156.973 57.0056 157.492 57.0056 158.002 57.0028C158.435 57.0028 158.879 56.9972 159.312 56.9876C160.264 56.9757 161.214 56.8917 162.153 56.7364C163.096 56.5735 164.01 56.2715 164.864 55.8403C165.715 55.4085 166.49 54.8432 167.162 54.1658C167.838 53.4941 168.404 52.7202 168.84 51.8724C169.269 51.0206 169.566 50.1083 169.72 49.1671C169.878 48.2269 169.966 47.2763 169.983 46.3231C169.989 45.8818 169.989 45.4545 169.989 45.0134C170 44.4973 170 43.984 170 43.4595V13.7273C170 13.2071 170 12.691 169.989 12.1763C169.989 11.7406 169.989 11.3036 169.983 10.868C169.966 9.91472 169.878 8.96405 169.72 8.02387C169.565 7.08318 169.269 6.17144 168.84 5.31993C167.963 3.61101 166.573 2.21995 164.864 1.34241C164.01 0.91231 163.096 0.612089 162.153 0.45167C161.214 0.29509 160.264 0.211137 159.312 0.200557C158.879 0.193624 158.435 0.185299 158.002 0.182529C157.492 0.179688 156.973 0.179872 156.462 0.179872Z" fill="#A6A6A6"/>
<path d="M11.9971 55.7625C11.5643 55.7625 11.1419 55.7569 10.7124 55.7473C9.82279 55.7357 8.93523 55.6582 8.05704 55.5156C7.23816 55.3745 6.4449 55.1122 5.7034 54.7372C4.9687 54.3653 4.2986 53.8777 3.71876 53.293C3.13053 52.7152 2.6408 52.045 2.26898 51.309C1.89306 50.5683 1.6329 49.7743 1.49757 48.9547C1.35142 48.0741 1.27235 47.1836 1.26103 46.291C1.25203 45.9914 1.24023 44.9939 1.24023 44.9939V12.1762C1.24023 12.1762 1.25279 11.1939 1.2611 10.9054C1.27194 10.0142 1.35055 9.12509 1.49626 8.24582C1.63185 7.42401 1.89221 6.62773 2.26833 5.88457C2.63878 5.14912 3.12579 4.47846 3.71048 3.89858C4.29451 3.31319 4.96676 2.82304 5.7027 2.44601C6.4425 2.07222 7.23426 1.81173 8.05148 1.67327C8.93256 1.52917 9.8232 1.45126 10.7159 1.4402L11.9978 1.42285H157.995L159.292 1.44089C160.177 1.45141 161.06 1.52862 161.933 1.67188C162.758 1.81207 163.558 2.07438 164.306 2.45018C165.781 3.21 166.98 4.41212 167.737 5.88803C168.107 6.62607 168.364 7.41585 168.498 8.23056C168.645 9.11704 168.728 10.0131 168.744 10.9116C168.749 11.3139 168.749 11.7461 168.749 12.1762C168.76 12.7089 168.76 13.216 168.76 13.7272V43.4594C168.76 43.9755 168.76 44.4791 168.749 44.9869C168.749 45.4489 168.749 45.8721 168.743 46.3077C168.726 47.1901 168.645 48.0702 168.5 48.9408C168.368 49.7663 168.109 50.5665 167.733 51.3133C167.359 52.0413 166.872 52.7056 166.29 53.2819C165.71 53.8697 165.039 54.3602 164.302 54.7345C163.556 55.1124 162.757 55.3757 161.933 55.5156C161.054 55.659 160.167 55.7364 159.277 55.7473C158.861 55.7569 158.425 55.7625 158.002 55.7625L156.462 55.7653L11.9971 55.7625Z" fill="black"/>
<path d="M35.1877 29.0196C35.203 27.8339 35.518 26.6713 36.1033 25.6399C36.6886 24.6086 37.5253 23.7421 38.5356 23.121C37.8938 22.2045 37.0472 21.4502 36.0629 20.9181C35.0787 20.386 33.9839 20.0907 32.8655 20.0558C30.4799 19.8053 28.1672 21.4833 26.9515 21.4833C25.7124 21.4833 23.8407 20.0806 21.8251 20.1221C20.5215 20.1642 19.2509 20.5433 18.1373 21.2225C17.0237 21.9016 16.105 22.8576 15.4707 23.9974C12.7232 28.7543 14.7726 35.7454 17.4045 39.5905C18.7213 41.4734 20.2603 43.5765 22.2739 43.502C24.2445 43.4202 24.9804 42.2454 27.359 42.2454C29.7155 42.2454 30.406 43.502 32.4605 43.4545C34.575 43.4202 35.9072 41.5633 37.1778 39.6626C38.1239 38.321 38.8519 36.8383 39.3349 35.2693C38.1065 34.7497 37.0582 33.88 36.3207 32.7687C35.5832 31.6573 35.1892 30.3534 35.1877 29.0196Z" fill="white"/>
<path d="M31.307 17.527C32.4599 16.143 33.0279 14.3641 32.8904 12.5681C31.129 12.7531 29.502 13.5949 28.3335 14.9258C27.7622 15.576 27.3247 16.3324 27.0459 17.1518C26.7671 17.9712 26.6525 18.8375 26.7087 19.7012C27.5897 19.7102 28.4613 19.5193 29.2578 19.1427C30.0543 18.7661 30.755 18.2137 31.307 17.527Z" fill="white"/>
<path d="M60.0965 38.7355H53.372L51.7572 43.5039H48.9089L55.2783 25.8623H58.2375L64.6068 43.5039H61.71L60.0965 38.7355ZM54.0685 36.5352H59.3987L56.7711 28.7966H56.6976L54.0685 36.5352Z" fill="white"/>
<path d="M78.3623 37.0736C78.3623 41.0705 76.223 43.6385 72.9947 43.6385C72.1769 43.6813 71.3636 43.4929 70.6479 43.0949C69.9321 42.6969 69.343 42.1055 68.9478 41.3882H68.8867V47.7589H66.2466V30.6418H68.8021V32.7811H68.8507C69.264 32.0673 69.8631 31.4789 70.5843 31.0785C71.3055 30.6781 72.1217 30.4807 72.9461 30.5073C76.2105 30.5073 78.3623 33.0877 78.3623 37.0736ZM75.6487 37.0736C75.6487 34.4695 74.3029 32.7575 72.2497 32.7575C70.2325 32.7575 68.8756 34.5056 68.8756 37.0736C68.8756 39.6651 70.2325 41.4007 72.2497 41.4007C74.303 41.4007 75.6487 39.7012 75.6487 37.0736Z" fill="white"/>
<path d="M92.5186 37.0736C92.5186 41.0705 90.3793 43.6385 87.1509 43.6385C86.3331 43.6813 85.5198 43.4929 84.8041 43.0949C84.0884 42.6969 83.4992 42.1055 83.104 41.3882H83.043V47.7589H80.4028V30.6418H82.9583V32.7811H83.0069C83.4202 32.0673 84.0193 31.4789 84.7405 31.0785C85.4617 30.6781 86.2779 30.4807 87.1023 30.5073C90.3668 30.5073 92.5186 33.0877 92.5186 37.0736ZM89.8049 37.0736C89.8049 34.4695 88.4592 32.7575 86.4059 32.7575C84.3887 32.7575 83.0319 34.5056 83.0319 37.0736C83.0319 39.6651 84.3887 41.4007 86.4059 41.4007C88.4592 41.4007 89.8049 39.7012 89.8049 37.0736Z" fill="white"/>
<path d="M101.875 38.5884C102.071 40.3379 103.77 41.4866 106.092 41.4866C108.318 41.4866 109.919 40.3378 109.919 38.7604C109.919 37.3911 108.953 36.5712 106.667 36.0093L104.381 35.4585C101.141 34.6761 99.6372 33.1611 99.6372 30.7027C99.6372 27.6588 102.29 25.5681 106.056 25.5681C109.784 25.5681 112.34 27.6588 112.426 30.7027H109.761C109.601 28.9421 108.146 27.8794 106.019 27.8794C103.892 27.8794 102.437 28.9546 102.437 30.5196C102.437 31.7668 103.366 32.5007 105.64 33.0625L107.584 33.5398C111.203 34.3958 112.707 35.8497 112.707 38.4302C112.707 41.7307 110.078 43.7978 105.897 43.7978C101.985 43.7978 99.343 41.7792 99.1724 38.5883L101.875 38.5884Z" fill="white"/>
<path d="M118.406 27.5979V30.6417H120.851V32.7325H118.406V39.8232C118.406 40.9248 118.895 41.4381 119.97 41.4381C120.261 41.433 120.551 41.4126 120.839 41.377V43.4552C120.356 43.5456 119.864 43.5865 119.373 43.5773C116.768 43.5773 115.753 42.5992 115.753 40.1048V32.7325H113.883V30.6417H115.753V27.5979H118.406Z" fill="white"/>
<path d="M122.268 37.0735C122.268 33.0267 124.651 30.4836 128.368 30.4836C132.097 30.4836 134.469 33.0266 134.469 37.0735C134.469 41.1315 132.109 43.6634 128.368 43.6634C124.627 43.6634 122.268 41.1315 122.268 37.0735ZM131.779 37.0735C131.779 34.2975 130.507 32.659 128.368 32.659C126.228 32.659 124.958 34.3099 124.958 37.0735C124.958 39.8607 126.228 41.4867 128.368 41.4867C130.507 41.4867 131.779 39.8607 131.779 37.0735Z" fill="white"/>
<path d="M136.646 30.6417H139.164V32.8309H139.225C139.395 32.1472 139.796 31.5429 140.359 31.1198C140.923 30.6966 141.615 30.4802 142.319 30.5071C142.623 30.5061 142.927 30.5391 143.223 30.6056V33.0751C142.839 32.9577 142.439 32.9038 142.037 32.9156C141.654 32.9 141.271 32.9676 140.916 33.1138C140.561 33.26 140.242 33.4812 139.981 33.7623C139.72 34.0435 139.522 34.3778 139.402 34.7425C139.282 35.1071 139.243 35.4934 139.286 35.8748V43.5038H136.646L136.646 30.6417Z" fill="white"/>
<path d="M155.396 39.7261C155.041 42.061 152.767 43.6634 149.858 43.6634C146.116 43.6634 143.794 41.1565 143.794 37.1346C143.794 33.1002 146.129 30.4836 149.747 30.4836C153.306 30.4836 155.543 32.9281 155.543 36.828V37.7325H146.459V37.8921C146.417 38.3654 146.476 38.8423 146.633 39.291C146.789 39.7397 147.04 40.1499 147.367 40.4945C147.694 40.8391 148.091 41.1101 148.531 41.2895C148.971 41.469 149.444 41.5527 149.919 41.5352C150.543 41.5937 151.169 41.4492 151.704 41.1232C152.239 40.7973 152.655 40.3073 152.889 39.7261L155.396 39.7261ZM146.472 35.8874H152.902C152.926 35.4617 152.861 35.0358 152.712 34.6363C152.564 34.2368 152.334 33.8724 152.038 33.5658C151.741 33.2593 151.385 33.0173 150.991 32.8551C150.597 32.6928 150.173 32.6138 149.747 32.6229C149.317 32.6204 148.891 32.703 148.493 32.866C148.095 33.029 147.734 33.2692 147.429 33.5727C147.125 33.8762 146.883 34.237 146.719 34.6342C146.554 35.0315 146.47 35.4574 146.472 35.8874Z" fill="white"/>
<path d="M53.7377 12.5833C54.2912 12.5436 54.8466 12.6272 55.3638 12.8282C55.8811 13.0291 56.3474 13.3423 56.7289 13.7453C57.1105 14.1482 57.3979 14.6308 57.5703 15.1582C57.7428 15.6857 57.7961 16.2448 57.7263 16.7953C57.7263 19.5034 56.2626 21.0601 53.7377 21.0601H50.6758V12.5833H53.7377ZM51.9924 19.8613H53.5906C53.9861 19.8849 54.3819 19.8201 54.7492 19.6715C55.1165 19.5229 55.446 19.2942 55.7138 19.0022C55.9816 18.7101 56.1809 18.3621 56.2972 17.9833C56.4135 17.6045 56.4438 17.2046 56.3861 16.8126C56.4397 16.4222 56.4062 16.0247 56.2881 15.6487C56.17 15.2727 55.9703 14.9275 55.7031 14.6378C55.4359 14.3481 55.108 14.121 54.7427 13.973C54.3775 13.8249 53.9841 13.7594 53.5906 13.7813H51.9924V19.8613Z" fill="white"/>
<path d="M59.2135 17.8587C59.1733 17.4383 59.2214 17.0142 59.3547 16.6134C59.488 16.2127 59.7036 15.8443 59.9876 15.5318C60.2717 15.2193 60.6179 14.9696 61.0041 14.7987C61.3903 14.6278 61.808 14.5396 62.2303 14.5396C62.6526 14.5396 63.0702 14.6278 63.4564 14.7987C63.8426 14.9696 64.1889 15.2193 64.4729 15.5318C64.757 15.8443 64.9726 16.2127 65.1059 16.6134C65.2392 17.0142 65.2873 17.4383 65.2471 17.8587C65.288 18.2795 65.2405 18.7043 65.1076 19.1057C64.9746 19.507 64.7591 19.8761 64.475 20.1893C64.1909 20.5024 63.8444 20.7526 63.4578 20.9238C63.0712 21.0951 62.6531 21.1835 62.2303 21.1835C61.8075 21.1835 61.3893 21.0951 61.0027 20.9238C60.6161 20.7526 60.2697 20.5024 59.9855 20.1893C59.7014 19.8761 59.4859 19.507 59.353 19.1057C59.22 18.7043 59.1725 18.2795 59.2135 17.8587ZM63.9485 17.8587C63.9485 16.4721 63.3256 15.6612 62.2324 15.6612C61.135 15.6612 60.5176 16.4721 60.5176 17.8587C60.5176 19.2565 61.135 20.0611 62.2324 20.0611C63.3256 20.0611 63.9485 19.2509 63.9485 17.8587Z" fill="white"/>
<path d="M73.2675 21.0601H71.9578L70.6357 16.3487H70.5358L69.2192 21.0601H67.922L66.1587 14.6631H67.4392L68.5852 19.5444H68.6795L69.9947 14.6631H71.2059L72.5211 19.5444H72.621L73.7614 14.6631H75.0238L73.2675 21.0601Z" fill="white"/>
<path d="M76.5068 14.663H77.7222V15.6792H77.8165C77.9765 15.3142 78.2465 15.0083 78.5887 14.804C78.9309 14.5997 79.3283 14.5072 79.7255 14.5395C80.0367 14.5161 80.3493 14.563 80.6399 14.6768C80.9306 14.7906 81.1919 14.9683 81.4046 15.1968C81.6172 15.4253 81.7757 15.6988 81.8684 15.9968C81.961 16.2949 81.9854 16.61 81.9397 16.9188V21.06H80.6772V17.2358C80.6772 16.2078 80.2305 15.6966 79.2968 15.6966C79.0855 15.6867 78.8745 15.7227 78.6784 15.802C78.4822 15.8813 78.3056 16.0021 78.1605 16.1561C78.0154 16.3101 77.9053 16.4936 77.8378 16.6941C77.7703 16.8946 77.7469 17.1073 77.7693 17.3177V21.06H76.5068L76.5068 14.663Z" fill="white"/>
<path d="M83.9512 12.1658H85.2137V21.0601H83.9512V12.1658Z" fill="white"/>
<path d="M86.9688 17.8588C86.9286 17.4384 86.9768 17.0142 87.1101 16.6135C87.2435 16.2128 87.4591 15.8443 87.7432 15.5318C88.0272 15.2193 88.3735 14.9696 88.7597 14.7987C89.1459 14.6278 89.5636 14.5396 89.986 14.5396C90.4083 14.5396 90.826 14.6278 91.2122 14.7987C91.5984 14.9696 91.9447 15.2193 92.2288 15.5318C92.5128 15.8443 92.7285 16.2128 92.8618 16.6135C92.9952 17.0142 93.0433 17.4384 93.0031 17.8588C93.044 18.2797 92.9965 18.7044 92.8635 19.1058C92.7305 19.5072 92.515 19.8763 92.2308 20.1894C91.9467 20.5025 91.6002 20.7527 91.2135 20.9239C90.8269 21.0952 90.4088 21.1836 89.986 21.1836C89.5631 21.1836 89.145 21.0952 88.7584 20.9239C88.3718 20.7527 88.0253 20.5025 87.7411 20.1894C87.457 19.8763 87.2415 19.5072 87.1085 19.1058C86.9755 18.7044 86.9279 18.2797 86.9688 17.8588ZM91.7038 17.8588C91.7038 16.4722 91.0809 15.6613 89.9877 15.6613C88.8903 15.6613 88.273 16.4722 88.273 17.8588C88.273 19.2566 88.8903 20.0613 89.9877 20.0613C91.0809 20.0612 91.7038 19.251 91.7038 17.8588Z" fill="white"/>
<path d="M94.332 19.251C94.332 18.0995 95.1894 17.4356 96.7113 17.3413L98.4441 17.2414V16.6892C98.4441 16.0136 97.9974 15.6321 97.1345 15.6321C96.4297 15.6321 95.9414 15.8908 95.8012 16.3431H94.579C94.708 15.2443 95.7416 14.5396 97.1927 14.5396C98.7965 14.5396 99.7011 15.338 99.7011 16.6892V21.0601H98.4857V20.1611H98.3859C98.1831 20.4836 97.8984 20.7464 97.5608 20.9229C97.2233 21.0994 96.8449 21.1831 96.4644 21.1655C96.1958 21.1934 95.9244 21.1648 95.6676 21.0814C95.4108 20.998 95.1743 20.8617 94.9734 20.6813C94.7725 20.5009 94.6117 20.2805 94.5012 20.0341C94.3907 19.7877 94.3331 19.521 94.332 19.251ZM98.4441 18.7044V18.1695L96.882 18.2694C96.001 18.3284 95.6014 18.628 95.6014 19.192C95.6014 19.7677 96.1009 20.1028 96.7877 20.1028C96.9889 20.1232 97.1922 20.1028 97.3854 20.043C97.5786 19.9833 97.7578 19.8852 97.9124 19.7547C98.0669 19.6243 98.1936 19.464 98.285 19.2836C98.3763 19.1031 98.4305 18.9061 98.4441 18.7044Z" fill="white"/>
<path d="M101.36 17.8588C101.36 15.8374 102.399 14.5569 104.016 14.5569C104.416 14.5385 104.812 14.6342 105.16 14.833C105.507 15.0317 105.791 15.3252 105.977 15.6792H106.072V12.1658H107.334V21.0601H106.125V20.0494H106.025C105.823 20.401 105.53 20.6908 105.176 20.8876C104.822 21.0843 104.421 21.1804 104.016 21.1655C102.388 21.1655 101.36 19.885 101.36 17.8588ZM102.665 17.8588C102.665 19.2156 103.304 20.0321 104.374 20.0321C105.438 20.0321 106.095 19.2038 106.095 17.8643C106.095 16.5311 105.431 15.691 104.374 15.691C103.311 15.691 102.665 16.513 102.665 17.8588Z" fill="white"/>
<path d="M112.558 17.8587C112.518 17.4383 112.566 17.0142 112.699 16.6134C112.832 16.2127 113.048 15.8443 113.332 15.5318C113.616 15.2193 113.962 14.9696 114.348 14.7987C114.735 14.6278 115.152 14.5396 115.575 14.5396C115.997 14.5396 116.414 14.6278 116.801 14.7987C117.187 14.9696 117.533 15.2193 117.817 15.5318C118.101 15.8443 118.317 16.2127 118.45 16.6134C118.583 17.0142 118.632 17.4383 118.591 17.8587C118.632 18.2795 118.585 18.7043 118.452 19.1057C118.319 19.507 118.103 19.8761 117.819 20.1893C117.535 20.5024 117.189 20.7526 116.802 20.9238C116.415 21.0951 115.997 21.1835 115.575 21.1835C115.152 21.1835 114.734 21.0951 114.347 20.9238C113.96 20.7526 113.614 20.5024 113.33 20.1893C113.046 19.8761 112.83 19.507 112.697 19.1057C112.564 18.7043 112.517 18.2795 112.558 17.8587ZM117.293 17.8587C117.293 16.4721 116.67 15.6612 115.577 15.6612C114.479 15.6612 113.862 16.4721 113.862 17.8587C113.862 19.2565 114.479 20.0611 115.577 20.0611C116.67 20.0611 117.293 19.2509 117.293 17.8587Z" fill="white"/>
<path d="M120.285 14.663H121.5V15.6792H121.595C121.755 15.3142 122.025 15.0083 122.367 14.804C122.709 14.5997 123.107 14.5072 123.504 14.5395C123.815 14.5161 124.128 14.563 124.418 14.6768C124.709 14.7906 124.97 14.9683 125.183 15.1968C125.396 15.4253 125.554 15.6988 125.647 15.9968C125.739 16.2949 125.764 16.61 125.718 16.9188V21.06H124.456V17.2358C124.456 16.2078 124.009 15.6966 123.075 15.6966C122.864 15.6867 122.653 15.7227 122.457 15.802C122.261 15.8813 122.084 16.0021 121.939 16.1561C121.794 16.3101 121.684 16.4936 121.616 16.6941C121.549 16.8946 121.525 17.1073 121.548 17.3177V21.06H120.285V14.663Z" fill="white"/>
<path d="M132.852 13.0703V14.6921H134.238V15.7555H132.852V19.0449C132.852 19.715 133.128 20.0084 133.756 20.0084C133.917 20.0079 134.078 19.9982 134.238 19.9793V21.0309C134.011 21.0715 133.781 21.093 133.551 21.0954C132.147 21.0954 131.588 20.6015 131.588 19.3682V15.7555H130.572V14.6921H131.588V13.0703H132.852Z" fill="white"/>
<path d="M135.962 12.1658H137.214V15.691H137.314C137.481 15.3226 137.759 15.0149 138.108 14.8099C138.457 14.6048 138.861 14.5123 139.264 14.5451C139.574 14.5282 139.883 14.5799 140.171 14.6965C140.458 14.813 140.716 14.9916 140.927 15.2193C141.137 15.4471 141.295 15.7185 141.388 16.0142C141.482 16.3099 141.509 16.6226 141.467 16.9299V21.0601H140.204V17.2414C140.204 16.2196 139.728 15.7021 138.836 15.7021C138.619 15.6843 138.4 15.7141 138.196 15.7895C137.992 15.8649 137.807 15.984 137.653 16.1384C137.5 16.2929 137.382 16.4791 137.308 16.6838C137.234 16.8886 137.206 17.1071 137.225 17.3239V21.06H135.962L135.962 12.1658Z" fill="white"/>
<path d="M148.828 19.3329C148.657 19.9176 148.285 20.4233 147.779 20.7616C147.272 21.1 146.662 21.2493 146.057 21.1837C145.635 21.1948 145.216 21.1141 144.829 20.9471C144.442 20.7801 144.096 20.5309 143.815 20.2168C143.534 19.9026 143.324 19.531 143.201 19.1278C143.078 18.7246 143.044 18.2994 143.102 17.8818C143.045 17.4629 143.08 17.0368 143.203 16.6323C143.326 16.2279 143.534 15.8546 143.814 15.5377C144.093 15.2208 144.438 14.9677 144.824 14.7955C145.21 14.6233 145.628 14.5361 146.051 14.5397C147.831 14.5397 148.905 15.7557 148.905 17.7645V18.205H144.388V18.2758C144.368 18.5105 144.397 18.7468 144.474 18.9695C144.551 19.1922 144.674 19.3964 144.834 19.5689C144.994 19.7415 145.189 19.8786 145.406 19.9715C145.622 20.0644 145.856 20.111 146.091 20.1084C146.393 20.1447 146.699 20.0903 146.97 19.9522C147.241 19.8141 147.465 19.5985 147.613 19.3329L148.828 19.3329ZM144.388 17.2713H147.619C147.635 17.0566 147.605 16.841 147.533 16.6382C147.461 16.4355 147.347 16.2501 147.198 16.0941C147.05 15.938 146.871 15.8147 146.672 15.732C146.473 15.6494 146.259 15.6092 146.044 15.6142C145.826 15.6114 145.609 15.6524 145.407 15.7347C145.204 15.8171 145.021 15.939 144.866 16.0935C144.712 16.2479 144.59 16.4317 144.508 16.634C144.426 16.8363 144.385 17.053 144.388 17.2713Z" fill="white"/>
</g>
<defs>
<clipPath id="clip0_1_49980">
<rect width="170" height="56.8257" fill="white" transform="translate(0 0.179688)"/>
</clipPath>
</defs>
</svg>
