<svg preserveAspectRatio="none" width="100%" height="100%" overflow="visible" style="display: block;" viewBox="0 0 24 24" fill="none" xmlns="http://www.w3.org/2000/svg">
<g id="clarity:note-line" clip-path="url(#clip0_38_300908)">
<path id="Vector" d="M18.668 20H4.0013V5.33333H12.8146L14.148 4H4.0013C3.64768 4 3.30854 4.14048 3.05849 4.39052C2.80844 4.64057 2.66797 4.97971 2.66797 5.33333V20C2.66797 20.3536 2.80844 20.6928 3.05849 20.9428C3.30854 21.1929 3.64768 21.3333 4.0013 21.3333H18.668C19.0216 21.3333 19.3607 21.1929 19.6108 20.9428C19.8608 20.6928 20.0013 20.3536 20.0013 20V10L18.668 11.3333V20Z" fill="var(--fill-0, #16BAC6)"/>
<path id="Vector_2" d="M22.3556 3.89313L20.1089 1.64647C20.0092 1.54649 19.8908 1.46716 19.7603 1.41304C19.6299 1.35891 19.4901 1.33105 19.3489 1.33105C19.2077 1.33105 19.0679 1.35891 18.9375 1.41304C18.8071 1.46716 18.6886 1.54649 18.5889 1.64647L9.44892 10.8398L8.70892 14.0465C8.67739 14.2019 8.68071 14.3624 8.71862 14.5164C8.75654 14.6704 8.82811 14.8141 8.9282 14.9371C9.02829 15.0602 9.1544 15.1595 9.29746 15.228C9.44052 15.2964 9.59698 15.3324 9.75558 15.3331C9.83756 15.3421 9.92027 15.3421 10.0023 15.3331L13.2356 14.6198L22.3556 5.41313C22.4556 5.31343 22.5349 5.19497 22.589 5.06456C22.6431 4.93415 22.671 4.79433 22.671 4.65313C22.671 4.51193 22.6431 4.37212 22.589 4.24171C22.5349 4.11129 22.4556 3.99284 22.3556 3.89313ZM12.5423 13.3865L10.1022 13.9265L10.6689 11.5065L17.5489 4.5798L19.4289 6.4598L12.5423 13.3865ZM20.1823 5.70647L18.3023 3.82647L19.3356 2.77313L21.2289 4.66647L20.1823 5.70647Z" fill="var(--fill-0, #16BAC6)"/>
<g id="Vector_3">
</g>
</g>
<defs>
<clipPath id="clip0_38_300908">
<rect width="24" height="24" fill="white"/>
</clipPath>
</defs>
</svg>
