<svg preserveAspectRatio="none" width="100%" height="100%" overflow="visible" style="display: block;" viewBox="0 0 107 23" fill="none" xmlns="http://www.w3.org/2000/svg">
<g id="Group">
<path id="Vector" d="M11.1876 13.1674H4.46309L2.84822 17.9357H-2.42075e-06L6.36931 0.294158H9.32852L15.6978 17.9357H12.801L11.1876 13.1674ZM5.15954 10.9671H10.4898L7.86215 3.22843H7.78862L5.15954 10.9671Z" fill="var(--fill-0, white)"/>
<path id="Vector_2" d="M29.4534 11.5054C29.4534 15.5023 27.3141 18.0703 24.0857 18.0703C23.2679 18.1131 22.4546 17.9247 21.7389 17.5267C21.0232 17.1287 20.434 16.5372 20.0388 15.82H19.9778V22.1907H17.3376V5.0736H19.8932V7.21289H19.9417C20.3551 6.49907 20.9542 5.91065 21.6754 5.51025C22.3965 5.10985 23.2127 4.91244 24.0372 4.93902C27.3015 4.93904 29.4534 7.51949 29.4534 11.5054ZM26.7397 11.5054C26.7397 8.90131 25.394 7.18931 23.3407 7.18931C21.3235 7.18931 19.9667 8.93737 19.9667 11.5054C19.9667 14.0969 21.3235 15.8325 23.3407 15.8325C25.394 15.8325 26.7397 14.133 26.7397 11.5054Z" fill="var(--fill-0, white)"/>
<path id="Vector_3" d="M43.6099 11.5054C43.6099 15.5023 41.4706 18.0703 38.2422 18.0703C37.4244 18.1131 36.6111 17.9247 35.8954 17.5267C35.1797 17.1287 34.5905 16.5372 34.1953 15.82H34.1342V22.1907H31.4941V5.0736H34.0496V7.21289H34.0982C34.5115 6.49907 35.1106 5.91065 35.8318 5.51025C36.553 5.10985 37.3692 4.91245 38.1936 4.93904C41.4581 4.93904 43.6099 7.5195 43.6099 11.5054ZM40.8962 11.5054C40.8962 8.90131 39.5505 7.18931 37.4972 7.18931C35.48 7.18931 34.1232 8.93737 34.1232 11.5054C34.1232 14.0969 35.48 15.8325 37.4972 15.8325C39.5505 15.8325 40.8962 14.133 40.8962 11.5054Z" fill="var(--fill-0, white)"/>
<path id="Vector_4" d="M52.9661 13.0203C53.1618 14.7698 54.8613 15.9184 57.1837 15.9184C59.409 15.9184 61.01 14.7697 61.01 13.1923C61.01 11.823 60.0444 11.0031 57.758 10.4412L55.4717 9.89041C52.2323 9.10794 50.7284 7.59296 50.7284 5.13457C50.7284 2.09073 53.381 -3.8147e-07 57.1476 -3.8147e-07C60.8754 -3.8147e-07 63.4309 2.09073 63.5169 5.13457H60.8518C60.6923 3.37403 59.2369 2.31133 57.1101 2.31133C54.9833 2.31133 53.528 3.38653 53.528 4.95145C53.528 6.19868 54.4575 6.93258 56.7314 7.49441L58.675 7.97166C62.2946 8.82765 63.7985 10.2816 63.7985 12.8621C63.7985 16.1625 61.1695 18.2297 56.988 18.2297C53.0757 18.2297 50.4342 16.2111 50.2635 13.0202L52.9661 13.0203Z" fill="var(--fill-0, white)"/>
<path id="Vector_5" d="M69.4964 2.02976V5.0736H71.9423V7.16433H69.4964V14.2551C69.4964 15.3566 69.9861 15.8699 71.0613 15.8699C71.3517 15.8649 71.6416 15.8445 71.9298 15.8088V17.8871C71.4464 17.9774 70.955 18.0183 70.4634 18.0092C67.8593 18.0092 66.8438 17.0311 66.8438 14.5366V7.16433H64.9736V5.0736H66.8437V2.02976H69.4964Z" fill="var(--fill-0, white)"/>
<path id="Vector_6" d="M73.3588 11.5054C73.3588 7.45846 75.7423 4.91545 79.459 4.91545C83.1882 4.91545 85.5605 7.45841 85.5605 11.5054C85.5605 15.5633 83.2007 18.0952 79.459 18.0952C75.7186 18.0952 73.3588 15.5633 73.3588 11.5054ZM82.8705 11.5054C82.8705 8.72927 81.5983 7.09081 79.459 7.09081C77.3197 7.09081 76.0489 8.74176 76.0489 11.5054C76.0489 14.2925 77.3197 15.9185 79.459 15.9185C81.5983 15.9185 82.8705 14.2925 82.8705 11.5054Z" fill="var(--fill-0, white)"/>
<path id="Vector_7" d="M87.7372 5.0736H90.2553V7.26281H90.3163C90.4867 6.57908 90.8873 5.97483 91.4507 5.55164C92.0141 5.12845 92.706 4.91212 93.4101 4.93901C93.7144 4.93794 94.0178 4.97099 94.3147 5.03752V7.50699C93.9306 7.38962 93.5299 7.33573 93.1284 7.34745C92.7449 7.33189 92.3625 7.39952 92.0076 7.54568C91.6527 7.69185 91.3336 7.91309 91.0722 8.19422C90.8108 8.47535 90.6134 8.80972 90.4935 9.17435C90.3735 9.53899 90.3339 9.92526 90.3773 10.3067V17.9357H87.7372L87.7372 5.0736Z" fill="var(--fill-0, white)"/>
<path id="Vector_8" d="M106.487 14.1579C106.132 16.4928 103.858 18.0952 100.949 18.0952C97.2073 18.0952 94.8848 15.5883 94.8848 11.5664C94.8848 7.53198 97.2197 4.91544 100.838 4.91544C104.396 4.91544 106.634 7.35994 106.634 11.2598V12.1643H97.5499V12.3239C97.508 12.7972 97.5673 13.2741 97.7238 13.7228C97.8803 14.1715 98.1305 14.5817 98.4578 14.9263C98.785 15.2709 99.1819 15.5419 99.6219 15.7213C100.062 15.9008 100.535 15.9845 101.01 15.967C101.634 16.0255 102.26 15.881 102.795 15.555C103.33 15.2291 103.746 14.7391 103.98 14.1579L106.487 14.1579ZM97.5624 10.3192H103.993C104.016 9.89354 103.952 9.46761 103.803 9.06812C103.655 8.66862 103.425 8.30417 103.129 7.99764C102.832 7.69112 102.476 7.44913 102.082 7.28687C101.688 7.12461 101.264 7.04557 100.838 7.05473C100.408 7.05216 99.9818 7.13477 99.584 7.29778C99.1862 7.46078 98.8245 7.70097 98.52 8.00446C98.2155 8.30796 97.9741 8.66876 97.8097 9.06605C97.6454 9.46333 97.5613 9.88922 97.5624 10.3192Z" fill="var(--fill-0, white)"/>
</g>
</svg>
