<svg preserveAspectRatio="none" width="100%" height="100%" overflow="visible" style="display: block;" viewBox="0 0 99 10" fill="none" xmlns="http://www.w3.org/2000/svg">
<g id="Group">
<path id="Vector" d="M3.06187 0.417668C3.61537 0.377948 4.17079 0.461567 4.68806 0.662493C5.20534 0.863419 5.67157 1.17664 6.05314 1.57957C6.4347 1.9825 6.72208 2.46509 6.89455 2.99254C7.06703 3.51998 7.12028 4.07913 7.05049 4.62965C7.05049 7.33775 5.58685 8.89442 3.06187 8.89442H6.55756e-07V0.417668H3.06187ZM1.31658 7.69563H2.91481C3.31032 7.71927 3.70613 7.65442 4.07342 7.5058C4.44071 7.35718 4.77025 7.12853 5.03803 6.83649C5.30581 6.54446 5.5051 6.19639 5.6214 5.81762C5.73769 5.43885 5.76807 5.03891 5.71031 4.64693C5.76387 4.25648 5.73042 3.85903 5.61234 3.48304C5.49426 3.10704 5.29447 2.76182 5.0273 2.47211C4.76013 2.1824 4.43219 1.95537 4.06697 1.80728C3.70175 1.6592 3.3083 1.59373 2.91481 1.61557H1.31658V7.69563Z" fill="var(--fill-0, white)"/>
<path id="Vector_2" d="M8.53773 5.693C8.49751 5.27261 8.5456 4.84845 8.67892 4.44773C8.81223 4.04701 9.02782 3.67858 9.31187 3.36606C9.59591 3.05354 9.94214 2.80384 10.3283 2.63297C10.7146 2.46211 11.1322 2.37384 11.5545 2.37384C11.9768 2.37384 12.3945 2.46211 12.7807 2.63297C13.1669 2.80384 13.5131 3.05354 13.7972 3.36606C14.0812 3.67858 14.2968 4.04701 14.4301 4.44773C14.5634 4.84845 14.6115 5.27261 14.5713 5.693C14.6123 6.11383 14.5648 6.53857 14.4318 6.93994C14.2988 7.34131 14.0834 7.71042 13.7993 8.02355C13.5151 8.33668 13.1687 8.5869 12.7821 8.75814C12.3955 8.92937 11.9773 9.01784 11.5545 9.01784C11.1317 9.01784 10.7136 8.92937 10.327 8.75814C9.94037 8.5869 9.59389 8.33668 9.30977 8.02355C9.02565 7.71042 8.81019 7.34131 8.67723 6.93994C8.54426 6.53857 8.49675 6.11383 8.53773 5.693ZM13.2727 5.693C13.2727 4.30635 12.6498 3.49545 11.5566 3.49545C10.4592 3.49545 9.84188 4.30635 9.84188 5.69302C9.84188 7.09077 10.4592 7.89543 11.5566 7.89543C12.6498 7.89541 13.2727 7.0852 13.2727 5.693Z" fill="var(--fill-0, white)"/>
<path id="Vector_3" d="M22.5916 8.89429H21.2819L19.9598 4.18286H19.8599L18.5433 8.89429H17.2461L15.4828 2.49724H16.7633L17.9093 7.37857H18.0036L19.3188 2.49724H20.53L21.8452 7.37857H21.9451L23.0855 2.49724H24.3479L22.5916 8.89429Z" fill="var(--fill-0, white)"/>
<path id="Vector_4" d="M25.831 2.49724H27.0463V3.51346H27.1407C27.3007 3.14847 27.5706 2.8425 27.9128 2.63821C28.255 2.43391 28.6524 2.34146 29.0497 2.37375C29.3609 2.35035 29.6735 2.39728 29.9641 2.51107C30.2548 2.62486 30.5161 2.80259 30.7288 3.03109C30.9414 3.25959 31.0999 3.53301 31.1925 3.83109C31.2852 4.12917 31.3095 4.44427 31.2639 4.75305V8.89422H30.0014V5.07008C30.0014 4.04206 29.5547 3.53081 28.621 3.53081C28.4096 3.52097 28.1987 3.55694 28.0025 3.63625C27.8064 3.71557 27.6298 3.83635 27.4847 3.99033C27.3396 4.1443 27.2295 4.32783 27.162 4.52833C27.0945 4.72882 27.0711 4.94155 27.0935 5.15192V8.89429H25.831L25.831 2.49724Z" fill="var(--fill-0, white)"/>
<path id="Vector_5" d="M33.2755 3.8147e-07H34.538V8.89428H33.2755V3.8147e-07Z" fill="var(--fill-0, white)"/>
<path id="Vector_6" d="M36.293 5.693C36.2528 5.27258 36.3009 4.8484 36.4343 4.44766C36.5676 4.04693 36.7832 3.67848 37.0673 3.36596C37.3514 3.05343 37.6977 2.80373 38.0839 2.63286C38.4701 2.46199 38.8878 2.37372 39.3101 2.37372C39.7325 2.37372 40.1502 2.46199 40.5364 2.63286C40.9226 2.80373 41.2689 3.05343 41.5529 3.36596C41.837 3.67848 42.0526 4.04693 42.186 4.44766C42.3193 4.8484 42.3674 5.27258 42.3273 5.693C42.3682 6.11384 42.3206 6.5386 42.1876 6.93996C42.0546 7.34133 41.8391 7.71043 41.555 8.02355C41.2708 8.33667 40.9243 8.58688 40.5377 8.75811C40.1511 8.92934 39.733 9.0178 39.3101 9.0178C38.8873 9.0178 38.4691 8.92934 38.0825 8.75811C37.6959 8.58688 37.3494 8.33667 37.0653 8.02355C36.7811 7.71043 36.5656 7.34133 36.4326 6.93996C36.2996 6.5386 36.2521 6.11384 36.293 5.693ZM41.028 5.693C41.028 4.30635 40.4051 3.49545 39.3119 3.49545C38.2145 3.49545 37.5971 4.30635 37.5971 5.69302C37.5971 7.09077 38.2145 7.89543 39.3119 7.89543C40.4051 7.89541 41.028 7.0852 41.028 5.693Z" fill="var(--fill-0, white)"/>
<path id="Vector_7" d="M43.6564 7.0852C43.6564 5.9337 44.5137 5.26986 46.0356 5.17552L47.7685 5.07563V4.52347C47.7685 3.84783 47.3217 3.46631 46.4588 3.46631C45.754 3.46631 45.2657 3.72506 45.1256 4.17733H43.9033C44.0323 3.07855 45.0659 2.37378 46.5171 2.37378C48.1208 2.37378 49.0254 3.17218 49.0254 4.52347V8.89431H47.8101V7.99531H47.7102C47.5074 8.31779 47.2227 8.58067 46.8852 8.75713C46.5476 8.93359 46.1692 9.0173 45.7887 8.99971C45.5202 9.02764 45.2487 8.99899 44.9919 8.9156C44.7351 8.83221 44.4987 8.69593 44.2978 8.51555C44.0969 8.33518 43.936 8.1147 43.8255 7.86834C43.715 7.62198 43.6574 7.3552 43.6564 7.0852ZM47.7685 6.53858V6.00377L46.2063 6.10365C45.3253 6.16261 44.9258 6.46228 44.9258 7.02623C44.9258 7.60198 45.4252 7.93702 46.112 7.93702C46.3132 7.95739 46.5165 7.93707 46.7097 7.87728C46.9029 7.81748 47.0821 7.71943 47.2367 7.58896C47.3912 7.45848 47.518 7.29826 47.6093 7.11781C47.7007 6.93736 47.7548 6.74038 47.7685 6.53858Z" fill="var(--fill-0, white)"/>
<path id="Vector_8" d="M50.6846 5.693C50.6846 3.67164 51.7238 2.39111 53.34 2.39111C53.7398 2.37269 54.1366 2.46845 54.484 2.66719C54.8314 2.86593 55.115 3.15944 55.3017 3.51342H55.3961V3.8147e-07H56.6586V8.89428H55.4488V7.88359H55.3489C55.1477 8.23519 54.8542 8.52505 54.5001 8.72178C54.146 8.91852 53.7448 9.01463 53.34 8.99971C51.7127 8.99978 50.6846 7.71922 50.6846 5.693ZM51.9888 5.693C51.9888 7.04983 52.6284 7.86629 53.698 7.86629C54.7621 7.86629 55.4197 7.03805 55.4197 5.69856C55.4197 4.36531 54.7552 3.52527 53.698 3.52527C52.6353 3.52527 51.9888 4.34727 51.9888 5.693Z" fill="var(--fill-0, white)"/>
<path id="Vector_9" d="M61.8819 5.693C61.8417 5.27261 61.8898 4.84845 62.0231 4.44773C62.1564 4.04701 62.372 3.67858 62.6561 3.36606C62.9401 3.05354 63.2863 2.80384 63.6725 2.63297C64.0587 2.46211 64.4764 2.37384 64.8987 2.37384C65.321 2.37384 65.7387 2.46211 66.1249 2.63297C66.5111 2.80384 66.8573 3.05354 67.1414 3.36606C67.4254 3.67858 67.641 4.04701 67.7743 4.44773C67.9076 4.84845 67.9557 5.27261 67.9155 5.693C67.9565 6.11383 67.909 6.53857 67.776 6.93994C67.643 7.34131 67.4276 7.71042 67.1435 8.02355C66.8593 8.33668 66.5129 8.5869 66.1263 8.75814C65.7397 8.92937 65.3215 9.01784 64.8987 9.01784C64.4759 9.01784 64.0578 8.92937 63.6712 8.75814C63.2846 8.5869 62.9381 8.33668 62.654 8.02355C62.3699 7.71042 62.1544 7.34131 62.0214 6.93994C61.8885 6.53857 61.841 6.11383 61.8819 5.693ZM66.6169 5.693C66.6169 4.30635 65.994 3.49545 64.9008 3.49545C63.8034 3.49545 63.1861 4.30635 63.1861 5.69302C63.1861 7.09077 63.8035 7.89543 64.9008 7.89543C65.994 7.89541 66.6169 7.0852 66.6169 5.693Z" fill="var(--fill-0, white)"/>
<path id="Vector_10" d="M69.6094 2.49724H70.8248V3.51346H70.9191C71.0792 3.14847 71.3491 2.8425 71.6913 2.63821C72.0335 2.43391 72.4309 2.34146 72.8281 2.37375C73.1394 2.35035 73.4519 2.39728 73.7426 2.51107C74.0332 2.62486 74.2946 2.80259 74.5072 3.03109C74.7198 3.25959 74.8784 3.53301 74.971 3.83109C75.0636 4.12917 75.088 4.44427 75.0423 4.75305V8.89422H73.7798V5.07008C73.7798 4.04206 73.3331 3.53081 72.3994 3.53081C72.1881 3.52097 71.9771 3.55694 71.781 3.63625C71.5848 3.71557 71.4082 3.83635 71.2631 3.99033C71.118 4.1443 71.0079 4.32783 70.9404 4.52833C70.8729 4.72882 70.8495 4.94155 70.8719 5.15192V8.89429H69.6094V2.49724Z" fill="var(--fill-0, white)"/>
<path id="Vector_11" d="M82.176 0.904567V2.52637H83.562V3.58978H82.176V6.87918C82.176 7.54927 82.4521 7.84269 83.0806 7.84269C83.2415 7.84218 83.4022 7.83245 83.562 7.81355V8.86516C83.3353 8.90572 83.1056 8.9273 82.8753 8.92967C81.4713 8.92967 80.9122 8.43577 80.9122 7.20242V3.58972H79.8966V2.52632H80.9122V0.904567H82.176Z" fill="var(--fill-0, white)"/>
<path id="Vector_12" d="M85.2865 3.8147e-07H86.5379V3.52526H86.6377C86.8056 3.15685 87.0829 2.84916 87.432 2.64409C87.781 2.43902 88.1848 2.34656 88.5883 2.37931C88.8979 2.36246 89.2075 2.41415 89.4948 2.53071C89.7822 2.64726 90.0403 2.8258 90.2507 3.05358C90.4612 3.28136 90.6187 3.55278 90.7122 3.84846C90.8056 4.14415 90.8327 4.45681 90.7914 4.76416V8.89429H89.5277V5.0756C89.5277 4.05382 89.0517 3.53634 88.1597 3.53634C87.9427 3.51854 87.7245 3.54837 87.5202 3.62374C87.316 3.69911 87.1306 3.8182 86.9772 3.97268C86.8238 4.12716 86.706 4.31329 86.632 4.51806C86.5581 4.72283 86.5297 4.94128 86.549 5.15814V8.89427H85.2865L85.2865 3.8147e-07Z" fill="var(--fill-0, white)"/>
<path id="Vector_13" d="M98.1527 7.16705C97.9812 7.7517 97.6096 8.25742 97.1028 8.59575C96.5961 8.93408 95.9866 9.08346 95.3808 9.01776C94.9594 9.02889 94.5405 8.94817 94.1534 8.7812C93.7663 8.61423 93.4201 8.36502 93.139 8.05087C92.8578 7.73671 92.6484 7.36513 92.5252 6.96192C92.4021 6.55871 92.3681 6.13353 92.4258 5.71589C92.3697 5.29696 92.4042 4.87086 92.527 4.46645C92.6499 4.06203 92.8582 3.68873 93.1379 3.37182C93.4176 3.05491 93.7621 2.8018 94.1481 2.6296C94.5341 2.45741 94.9526 2.37016 95.3753 2.37377C97.1552 2.37377 98.229 3.58984 98.229 5.59863V6.03916H93.7118V6.1099C93.6921 6.34466 93.7216 6.58096 93.7985 6.80364C93.8754 7.02633 93.9979 7.23049 94.1583 7.40303C94.3187 7.57558 94.5134 7.7127 94.7299 7.80561C94.9464 7.89851 95.1799 7.94515 95.4155 7.94253C95.7175 7.97879 96.0234 7.92441 96.2944 7.78631C96.5654 7.64822 96.7893 7.43264 96.9374 7.16701L98.1527 7.16705ZM93.7118 5.10545H96.9429C96.9588 4.89075 96.9297 4.6751 96.8573 4.47235C96.7849 4.2696 96.6709 4.08423 96.5226 3.92816C96.3743 3.77209 96.195 3.64878 95.9962 3.56613C95.7974 3.48348 95.5835 3.44334 95.3683 3.44827C95.1499 3.44553 94.9332 3.48652 94.731 3.56884C94.5287 3.65116 94.345 3.77314 94.1906 3.92758C94.0363 4.08202 93.9144 4.26581 93.8321 4.4681C93.7499 4.67039 93.709 4.8871 93.7118 5.10545Z" fill="var(--fill-0, white)"/>
</g>
</svg>
