<svg preserveAspectRatio="none" width="100%" height="100%" overflow="visible" style="display: block;" viewBox="0 0 7 12" fill="none" xmlns="http://www.w3.org/2000/svg">
<path id="order-arrow-up" d="M6.20242 2.52943L3.96545 0.296296C3.77487 0.106043 3.51869 0 3.25 0C2.98131 0 2.72513 0.106043 2.53455 0.296296L0.297585 2.52943C-0.0991949 2.92554 -0.0991949 3.56491 0.297585 3.95789C0.494412 4.15439 0.753725 4.25419 1.01304 4.25419C1.27235 4.25419 1.53166 4.15439 1.72849 3.95789L2.25024 3.43704V11.0019C2.25024 11.554 2.69701 12 3.25 12C3.80299 12 4.24976 11.554 4.24976 11.0019V3.43704L4.77151 3.95789C5.16829 4.354 5.80876 4.354 6.20242 3.95789C6.5992 3.56179 6.5992 2.92242 6.20242 2.52943Z" fill="var(--fill-0, #717E8F)"/>
</svg>
