<svg preserveAspectRatio="none" width="100%" height="100%" overflow="visible" style="display: block;" viewBox="0 0 51 24" fill="none" xmlns="http://www.w3.org/2000/svg">
<g id="Frame 2147223466">
<path id="paw" d="M12.3581 11.2231C13.753 13.6391 11.9689 19.2362 9.58341 20.6135C8.513 21.2315 7.42461 20.7589 6.6477 19.4132C5.7825 17.9147 5.98205 16.4946 5.29343 15.3019C4.58714 14.0786 3.25755 13.5413 2.39235 12.0428C1.59778 10.6665 1.75036 9.51824 2.82076 8.90024C5.20623 7.523 10.9455 8.77646 12.3581 11.2231ZM10.1118 6.48494C9.26623 7.42169 7.96156 7.56329 7.21777 6.7694C6.49163 6.0061 6.59943 4.63899 7.49326 3.71517C8.36944 2.76076 9.66119 2.6674 10.3873 3.43071C11.1135 4.19401 11.0057 5.56112 10.1118 6.48494ZM12.2549 8.71369C11.4629 7.90688 11.7012 6.34208 12.8526 5.22876C13.9864 4.08485 15.5051 3.81966 16.2972 4.62647C17.0586 5.45094 16.8815 6.98043 15.7171 8.14199C14.5657 9.25531 13.0469 9.5205 12.2549 8.71369ZM18.1034 16.7954C18.4014 17.8059 17.6747 18.8779 16.4101 19.1595C15.1631 19.4717 13.9558 18.8638 13.6273 17.871C13.3293 16.8605 14.056 15.7885 15.3207 15.5069C16.5676 15.1947 17.7749 15.8026 18.1034 16.7954ZM14.462 12.5366C14.1593 11.4472 15.179 10.2469 16.7059 9.85463C18.2458 9.41413 19.7378 10.0207 20.0228 11.0795C20.3255 12.1688 19.3059 13.3691 17.7789 13.7614C16.2391 14.2019 14.7471 13.5953 14.462 12.5366Z" fill="var(--fill-0, #1DD3E0)"/>
<path id="paw_2" d="M41.7893 11.0889C41.0672 13.7837 35.8479 16.4798 33.1873 15.7669C31.9934 15.447 31.558 14.3432 31.9601 12.8424C32.408 11.1709 33.5533 10.3079 33.9097 8.97757C34.2753 7.61314 33.715 6.2931 34.1629 4.62167C34.5742 3.08668 35.494 2.3826 36.6879 2.7025C39.3485 3.41542 42.5205 8.36004 41.7893 11.0889ZM43.5513 6.15019C42.291 6.21465 41.2684 5.39223 41.3038 4.30492C41.3301 3.25173 42.373 2.36126 43.6583 2.34005C44.9527 2.28473 45.9321 3.13213 45.9058 4.18532C45.8795 5.23851 44.8366 6.12898 43.5513 6.15019ZM43.4908 9.24154C43.5012 8.11099 44.7762 7.17303 46.3776 7.19997C47.9882 7.1928 49.2496 8.0792 49.2392 9.20975C49.1946 10.3312 47.9878 11.2874 46.3432 11.2854C44.7418 11.2585 43.4803 10.3721 43.4908 9.24154ZM41.9117 19.0917C41.4078 20.017 40.1359 20.2611 39.0426 19.566C37.9401 18.905 37.5163 17.6215 37.986 16.6871C38.4898 15.7619 39.7617 15.5177 40.8551 16.2129C41.9575 16.8739 42.3814 18.1574 41.9117 19.0917ZM42.3483 13.5054C42.9045 12.5211 44.4743 12.3933 45.8313 13.1956C47.2317 13.973 47.8577 15.4569 47.3107 16.4071C46.7544 17.3914 45.1847 17.5192 43.8276 16.7169C42.4273 15.9395 41.8012 14.4556 42.3483 13.5054Z" fill="var(--fill-0, #1DD3E0)"/>
</g>
</svg>
