<svg preserveAspectRatio="none" width="100%" height="100%" overflow="visible" style="display: block;" viewBox="0 0 15 13" fill="none" xmlns="http://www.w3.org/2000/svg">
<path id="paw" opacity="0.2" d="M7.33688 5.4739C9.59667 5.4739 12.8004 8.99231 12.8004 11.2235C12.8004 12.2247 12.0281 12.7968 10.7695 12.7968C9.36783 12.7968 8.45248 12.0816 7.33688 12.0816C6.19268 12.0816 5.27733 12.7968 3.87568 12.7968C2.58846 12.7968 1.84473 12.2247 1.84473 11.2235C1.84473 8.99231 5.04849 5.4739 7.33688 5.4739ZM3.10335 5.13064C3.418 6.10321 2.98893 7.07578 2.13078 7.27602C1.30124 7.47625 0.38588 6.84694 0.09983 5.84577C-0.214824 4.8446 0.242855 3.90063 1.0724 3.7004C1.90194 3.50016 2.8173 4.12947 3.10335 5.13064ZM5.53477 4.52994C4.64802 4.75878 3.64684 3.95784 3.33219 2.69922C2.98893 1.44061 3.418 0.267803 4.30476 0.0389635C5.19151 -0.161271 6.19269 0.582458 6.53594 1.86968C6.8506 3.1283 6.42152 4.3011 5.53477 4.52994ZM13.5728 3.7004C14.4023 3.90063 14.86 4.8446 14.5453 5.84577C14.2593 6.84694 13.3439 7.44765 12.5144 7.27602C11.6848 7.07578 11.2272 6.13182 11.5418 5.13064C11.8279 4.12947 12.7432 3.52877 13.5728 3.7004ZM9.11039 4.52994C8.22364 4.3011 7.79456 3.09969 8.13782 1.86968C8.45248 0.611062 9.48225 -0.189876 10.3404 0.0389635C11.2272 0.267803 11.6562 1.46921 11.313 2.69922C10.9983 3.95784 9.96854 4.75878 9.11039 4.52994Z" fill="var(--fill-0, white)"/>
</svg>
