<svg preserveAspectRatio="none" width="100%" height="100%" overflow="visible" style="display: block;" viewBox="0 0 5 8" fill="none" xmlns="http://www.w3.org/2000/svg">
<path id="order-arrow-up" d="M3.87651 1.5809L2.47841 0.185185C2.3593 0.0662768 2.19918 0 2.03125 0C1.86332 0 1.7032 0.0662768 1.58409 0.185185L0.18599 1.5809C-0.0619968 1.82846 -0.0619968 2.22807 0.18599 2.47368C0.309008 2.59649 0.471078 2.65887 0.633149 2.65887C0.795219 2.65887 0.957289 2.59649 1.08031 2.47368L1.4064 2.14815V6.87622C1.4064 7.22125 1.68563 7.5 2.03125 7.5C2.37687 7.5 2.6561 7.22125 2.6561 6.87622V2.14815L2.98219 2.47368C3.23018 2.72125 3.63048 2.72125 3.87651 2.47368C4.1245 2.22612 4.1245 1.82651 3.87651 1.5809Z" fill="var(--fill-0, #717E8F)"/>
</svg>
