<svg preserveAspectRatio="none" width="100%" height="100%" overflow="visible" style="display: block;" viewBox="0 0 170 57" fill="none" xmlns="http://www.w3.org/2000/svg">
<g id="Group">
<path id="Vector" d="M156.462 0.000184684H13.5454C13.0244 0.000184684 12.5097 0.000184684 11.9902 0.00302597C11.5552 0.00586726 11.1238 0.0141212 10.6847 0.0210681C9.73072 0.0322938 8.77902 0.116218 7.83783 0.27211C6.89797 0.431396 5.98755 0.731696 5.13736 1.16285C4.28821 1.59766 3.51232 2.16264 2.83784 2.83731C2.15981 3.51008 1.59462 4.28771 1.164 5.1403C0.7322 5.99119 0.432786 6.90301 0.276102 7.84424C0.117929 8.78429 0.0328146 9.73517 0.0215228 10.6884C0.00833918 11.1239 0.00694695 11.561 0 11.9966V44.8337C0.00694695 45.2748 0.00833918 45.7021 0.0215228 46.1434C0.032818 47.0965 0.117932 48.0474 0.276102 48.9874C0.432353 49.9292 0.731785 50.8415 1.164 51.6927C1.59442 52.5426 2.15969 53.317 2.83784 53.9861C3.50976 54.6637 4.28616 55.2291 5.13736 55.6606C5.98754 56.0929 6.89786 56.395 7.83783 56.5567C8.77918 56.7114 9.73078 56.7953 10.6847 56.8079C11.1238 56.8176 11.5552 56.8231 11.9902 56.8231C12.5097 56.8259 13.0245 56.8259 13.5454 56.8259H156.462C156.973 56.8259 157.492 56.8259 158.002 56.8231C158.435 56.8231 158.879 56.8176 159.312 56.8079C160.264 56.796 161.214 56.712 162.153 56.5567C163.096 56.3938 164.01 56.0918 164.864 55.6606C165.715 55.2288 166.49 54.6635 167.162 53.9861C167.838 53.3144 168.404 52.5405 168.84 51.6927C169.269 50.8409 169.566 49.9286 169.72 48.9874C169.878 48.0473 169.966 47.0966 169.983 46.1434C169.989 45.7021 169.989 45.2748 169.989 44.8337C170 44.3176 170 43.8043 170 43.2798V13.5476C170 13.0274 170 12.5113 169.989 11.9966C169.989 11.561 169.989 11.1239 169.983 10.6883C169.966 9.73504 169.878 8.78436 169.72 7.84418C169.565 6.90349 169.269 5.99175 168.84 5.14024C167.963 3.43132 166.573 2.04027 164.864 1.16273C164.01 0.732622 163.096 0.432402 162.153 0.271982C161.214 0.115403 160.264 0.0314499 159.312 0.0208693C158.879 0.0139365 158.435 0.00561154 158.002 0.00284129C157.492 0 156.973 0.000184684 156.462 0.000184684Z" fill="var(--fill-0, #A6A6A6)"/>
<path id="Vector_2" d="M11.9971 55.5827C11.5643 55.5827 11.1419 55.5771 10.7124 55.5675C9.82279 55.5559 8.93523 55.4784 8.05704 55.3358C7.23817 55.1947 6.4449 54.9324 5.7034 54.5574C4.9687 54.1855 4.2986 53.6979 3.71876 53.1132C3.13053 52.5354 2.6408 51.8652 2.26898 51.1292C1.89306 50.3885 1.63291 49.5945 1.49757 48.775C1.35142 47.8943 1.27235 47.0039 1.26103 46.1112C1.25203 45.8116 1.24024 44.8141 1.24024 44.8141V11.9964C1.24024 11.9964 1.25279 11.0142 1.26111 10.7256C1.27194 9.83438 1.35055 8.9453 1.49626 8.06603C1.63185 7.24422 1.89221 6.44794 2.26833 5.70478C2.63878 4.96933 3.12579 4.29867 3.71048 3.71879C4.29451 3.1334 4.96676 2.64326 5.70271 2.26622C6.4425 1.89243 7.23427 1.63194 8.05148 1.49348C8.93256 1.34938 9.8232 1.27147 10.7159 1.26041L11.9978 1.24306H157.995L159.292 1.26111C160.177 1.27162 161.06 1.34883 161.933 1.49209C162.758 1.63228 163.558 1.89459 164.306 2.27039C165.781 3.03021 166.98 4.23233 167.737 5.70825C168.107 6.44628 168.364 7.23606 168.498 8.05077C168.645 8.93726 168.728 9.83332 168.744 10.7318C168.749 11.1342 168.749 11.5663 168.749 11.9964C168.76 12.5291 168.76 13.0362 168.76 13.5474V43.2796C168.76 43.7957 168.76 44.2994 168.749 44.8071C168.749 45.2691 168.749 45.6923 168.743 46.1279C168.726 47.0103 168.645 47.8904 168.5 48.761C168.368 49.5865 168.109 50.3867 167.733 51.1335C167.359 51.8615 166.872 52.5258 166.29 53.1021C165.71 53.6899 165.039 54.1804 164.302 54.5547C163.556 54.9326 162.757 55.1959 161.933 55.3358C161.054 55.4792 160.167 55.5567 159.277 55.5675C158.861 55.5771 158.425 55.5827 158.002 55.5827L156.462 55.5855L11.9971 55.5827Z" fill="var(--fill-0, black)"/>
</g>
</svg>
