<svg width="12" height="17" viewBox="0 0 12 17" fill="none" xmlns="http://www.w3.org/2000/svg">
<path d="M8.71199 11.5766C8.29438 11.8153 7.66796 11.5766 7.19068 11.6959C6.74324 11.8153 6.32563 12.3224 5.84835 12.3224C5.34125 12.3224 4.92364 11.8153 4.47619 11.6959C3.99892 11.5766 3.3725 11.8153 2.95489 11.5766C2.53727 11.338 2.44778 10.6817 2.11966 10.3238C1.76171 9.99565 1.10546 9.87633 0.866819 9.48855C0.628183 9.07093 0.866819 8.44451 0.747501 7.96724C0.628183 7.5198 0.12108 7.10218 0.12108 6.59508C0.12108 6.11781 0.628183 5.7002 0.747501 5.25275C0.866819 4.77548 0.628183 4.14906 0.866819 3.73145C1.10546 3.31383 1.76171 3.22434 2.11966 2.89622C2.44778 2.53826 2.5671 1.88201 2.95489 1.64338C3.3725 1.40474 3.99892 1.64338 4.47619 1.52406C4.92364 1.40474 5.34125 0.867809 5.84835 0.867809C6.32563 0.867809 6.74324 1.40474 7.16085 1.52406C7.63813 1.64338 8.26455 1.40474 8.68216 1.64338C9.09977 1.88201 9.18926 2.53826 9.54722 2.89622C9.87534 3.22434 10.5316 3.31383 10.7702 3.73145C11.0089 4.14906 10.7702 4.77548 10.8895 5.25275C11.0089 5.7002 11.5458 6.11781 11.5458 6.59508C11.5458 7.10218 11.0387 7.5198 10.9194 7.96724C10.8001 8.44451 11.0387 9.07093 10.8001 9.48855C10.5614 9.90616 9.90517 9.99565 9.54722 10.3238C9.21909 10.6817 9.09977 11.338 8.71199 11.5766ZM3.46199 6.59508C3.46199 7.93741 4.50602 8.98145 5.84835 8.98145C7.16085 8.98145 8.23472 7.93741 8.23472 6.59508C8.23472 5.28258 7.16085 4.20872 5.84835 4.20872C4.50602 4.20872 3.46199 5.28258 3.46199 6.59508ZM0.15091 13.8138L1.13528 11.3678C2.20915 12.4118 3.64097 13.1278 5.25176 13.2769L4.23756 15.7229C4.14807 15.9616 3.90943 16.1405 3.61114 16.1405C3.61114 16.1405 3.61114 16.1405 3.58131 16.1405C3.31284 16.1405 3.07421 15.9914 2.95489 15.7528L2.29864 14.4999L0.956308 14.7684C0.717671 14.828 0.449205 14.7385 0.270228 14.5297C0.0912509 14.3209 0.0614213 14.0525 0.15091 13.8138ZM10.5316 11.3678L11.516 13.8138C11.6055 14.0525 11.5756 14.3209 11.3966 14.5297C11.2177 14.7385 10.9492 14.828 10.7106 14.7684L9.36824 14.4999L8.71199 15.7528C8.59267 16.0212 8.35403 16.1405 8.08557 16.1405C8.05574 16.1405 8.05574 16.1405 8.05574 16.1704C7.75744 16.1405 7.51881 15.9616 7.39949 15.7229L6.41511 13.2769C8.02591 13.1278 9.45773 12.4118 10.5316 11.3678Z" fill="#3B97E5"/>
</svg>
