<svg width="16" height="15" viewBox="0 0 16 15" fill="none" xmlns="http://www.w3.org/2000/svg">
<path d="M0.211989 5.56525V5.4161C0.211989 3.32804 1.70347 1.53826 3.7617 1.21014C5.10403 0.971502 6.50602 1.41895 7.4904 2.40332L7.84835 2.73145L8.17648 2.40332C9.16085 1.41895 10.5628 0.971502 11.9052 1.21014C13.9634 1.53826 15.4847 3.32804 15.4847 5.4161V5.56525C15.4847 6.81809 14.9478 8.01127 14.0529 8.8465L8.65375 13.8877C8.44494 14.0965 8.14665 14.186 7.84835 14.186C7.52023 14.186 7.22193 14.0965 7.01313 13.8877L1.61398 8.8465C0.719091 8.01127 0.211989 6.81809 0.211989 5.56525Z" fill="#3B97E5"/>
</svg>
