<svg preserveAspectRatio="none" width="100%" height="100%" overflow="visible" style="display: block;" viewBox="0 0 154 32" fill="none" xmlns="http://www.w3.org/2000/svg">
<g id="Group">
<g id="Group_2">
<path id="Vector" fill-rule="evenodd" clip-rule="evenodd" d="M122.564 21.3364C122.789 20.6943 122.874 19.8846 122.874 18.5446C122.874 17.2042 122.789 16.4225 122.564 15.7525C122.115 14.4124 121.074 13.7421 119.584 13.7421C118.093 13.7421 117.081 14.4401 116.631 15.7525C116.406 16.4785 116.322 17.3441 116.322 18.5446C116.322 19.773 116.406 20.6383 116.631 21.3364C117.081 22.6487 118.093 23.3745 119.584 23.3745C121.074 23.3745 122.115 22.6764 122.564 21.3364ZM123.155 25.2452C122.986 25.2452 122.874 25.1336 122.874 24.966V23.6819H122.846C122.199 24.7425 121.046 25.5522 119.021 25.5522C116.688 25.5522 115.057 24.4633 114.382 22.3413C114.016 21.2807 113.904 20.2198 113.904 18.5446C113.904 16.8973 114.016 15.8361 114.382 14.7753C115.057 12.6532 116.688 11.5644 119.021 11.5644C121.046 11.5644 122.199 12.3463 122.846 13.4069H122.874V6.53895C122.874 6.37137 122.986 6.25947 123.155 6.25947H124.954C125.123 6.25947 125.236 6.37137 125.236 6.53895V24.966C125.236 25.1336 125.123 25.2452 124.954 25.2452H123.155ZM136.822 20.9177V19.4378C136.822 19.3262 136.765 19.2702 136.653 19.2702H133.954C131.62 19.2702 130.607 19.9405 130.607 21.4479C130.607 22.8162 131.62 23.5422 133.419 23.5422C135.528 23.5422 136.822 22.565 136.822 20.9177ZM137.159 25.2452C136.99 25.2452 136.878 25.1335 136.878 24.966V23.7935H136.85C136.231 24.7984 134.909 25.5523 132.857 25.5523C130.298 25.5523 128.33 24.2402 128.33 21.5318C128.33 18.7121 130.298 17.3997 133.588 17.3997H136.653C136.765 17.3997 136.822 17.344 136.822 17.2321V16.2549C136.822 14.4123 136.09 13.6304 133.588 13.6304C132.07 13.6304 131.113 14.0212 130.326 14.5799C130.186 14.6915 130.017 14.6915 129.932 14.5517L129.173 13.2675C129.089 13.1 129.117 12.9883 129.229 12.8767C130.242 12.095 131.816 11.5646 133.813 11.5646C137.637 11.5646 139.099 12.8207 139.099 16.1155V24.966C139.099 25.1335 138.987 25.2452 138.818 25.2452H137.159ZM142.756 30.2708C142.587 30.2708 142.475 30.1591 142.475 29.9915V28.3723C142.475 28.2047 142.587 28.093 142.756 28.093H143.262C144.359 28.093 144.949 27.6186 145.54 26.0827L145.99 24.8545L141.04 12.1506C140.984 11.9833 141.069 11.8714 141.265 11.8714H143.234C143.402 11.8714 143.515 11.9553 143.571 12.1506L147.114 21.8112H147.171L150.573 12.1506C150.629 11.9553 150.742 11.8714 150.91 11.8714H152.823C152.991 11.8714 153.104 11.9833 153.047 12.1506L147.733 26.2785C146.552 29.4331 145.512 30.2708 143.487 30.2708H142.756Z" fill="var(--fill-0, #15BAC6)"/>
</g>
<path id="Vector_2" fill-rule="evenodd" clip-rule="evenodd" d="M74.4798 11.9288C74.4798 9.86276 73.1019 8.57836 70.7399 8.57836H66.4658C66.3533 8.57836 66.297 8.63431 66.297 8.74594V15.1117C66.297 15.2234 66.3533 15.279 66.4658 15.279H70.7399C73.1019 15.279 74.4798 13.9949 74.4798 11.9288ZM64.0755 25.2466C63.907 25.2466 63.7943 25.1349 63.7943 24.9673V6.54026C63.7943 6.37295 63.907 6.26105 64.0755 6.26105H70.8805C74.564 6.26105 76.9543 8.4947 76.9543 11.9288C76.9543 15.363 74.564 17.5964 70.8805 17.5964H66.4658C66.3533 17.5964 66.297 17.6523 66.297 17.7639V24.9673C66.297 25.1349 66.1846 25.2466 66.0158 25.2466H64.0755ZM82.7761 25.3863C80.4138 25.3863 79.4859 24.2695 79.4859 21.8683V6.54044C79.4859 6.37287 79.5983 6.26097 79.7671 6.26097H81.5667C81.7355 6.26097 81.8479 6.37287 81.8479 6.54044V21.7287C81.8479 22.8455 82.2698 23.2084 83.1976 23.2084H83.7321C83.9006 23.2084 84.0131 23.32 84.0131 23.4876V25.1069C84.0131 25.2745 83.9006 25.3863 83.7321 25.3863H82.7761ZM94.3056 20.9192V19.4392C94.3056 19.3276 94.2492 19.2716 94.1368 19.2716H91.4375C89.1033 19.2716 88.0909 19.9419 88.0909 21.4493C88.0909 22.8176 89.1033 23.5436 90.903 23.5436C93.012 23.5436 94.3056 22.5664 94.3056 20.9192ZM94.6429 25.2466C94.4741 25.2466 94.3617 25.135 94.3617 24.9674V23.7949H94.3335C93.715 24.7998 92.3932 25.5538 90.3406 25.5538C87.7818 25.5538 85.8134 24.2417 85.8134 21.5332C85.8134 18.7135 87.7818 17.4011 91.0718 17.4011H94.1368C94.2492 17.4011 94.3056 17.3454 94.3056 17.2335V16.2563C94.3056 14.4137 93.5741 13.6318 91.0718 13.6318C89.5533 13.6318 88.5973 14.0226 87.8097 14.5813C87.6694 14.693 87.5006 14.693 87.4161 14.5531L86.6568 13.2689C86.5728 13.1014 86.6007 12.9897 86.7131 12.8781C87.7255 12.0964 89.3003 11.566 91.2966 11.566C95.121 11.566 96.5831 12.8222 96.5831 16.117V24.9674C96.5831 25.135 96.4707 25.2466 96.3019 25.2466H94.6429ZM108.985 25.2466C108.816 25.2466 108.703 25.135 108.703 24.9674V17.1496C108.703 14.9999 107.719 13.7435 105.694 13.7435C103.867 13.7435 102.601 15.0282 102.601 17.0103V24.9674C102.601 25.135 102.489 25.2466 102.32 25.2466H100.521C100.352 25.2466 100.239 25.135 100.239 24.9674V12.1522C100.239 11.9849 100.352 11.873 100.521 11.873H102.32C102.489 11.873 102.601 11.9849 102.601 12.1522V13.3806H102.629C103.276 12.3477 104.57 11.5658 106.397 11.5658C109.322 11.5658 111.065 13.5482 111.065 16.5915V24.9674C111.065 25.135 110.953 25.2466 110.784 25.2466H108.985Z" fill="var(--fill-0, #15BAC6)"/>
<path id="Vector_3" fill-rule="evenodd" clip-rule="evenodd" d="M40.3274 12.9122C39.7338 10.2357 38.2726 7.70474 35.9223 5.74683C30.1797 0.962227 22.0352 1.90855 17.4421 7.34375L17.4418 7.34401L17.4415 7.34428L0.758244 27.0856C-0.324173 28.3666 -0.23992 29.7914 0.961096 30.792C2.16211 31.7927 3.59013 31.6275 4.67255 30.3468L14.662 18.5261L21.3102 10.6596L21.3116 10.6607C21.3266 10.6423 21.3408 10.6234 21.3561 10.6052C21.4471 10.4976 21.5399 10.3937 21.6341 10.2922C21.6494 10.2759 21.6655 10.2602 21.6808 10.2437C24.7295 7.02111 29.5255 6.96277 32.6764 9.58779C32.6764 9.58779 32.6952 9.59951 32.7306 9.61896C36.4316 12.7464 36.2349 17.7548 33.6332 20.8333C33.5425 20.9407 33.3241 21.1783 33.3086 21.1946C30.2601 24.4172 25.5366 24.4864 22.259 21.8193C21.5748 21.2412 21.0239 20.5989 20.597 19.916C20.085 19.0973 18.9178 19.0147 18.2951 19.7538L16.1555 22.2919C16.895 23.5372 17.8641 24.6894 19.067 25.6917C24.8097 30.4761 32.9541 29.5297 37.5473 24.0948C37.5473 24.0948 41.2185 19.8678 40.3274 12.9122Z" fill="var(--fill-0, #15BAC6)"/>
<path id="Vector_4" fill-rule="evenodd" clip-rule="evenodd" d="M40.3364 12.9139L50.326 1.09344C51.4085 -0.187501 52.8362 -0.352414 54.0372 0.647987C55.2382 1.64865 55.3228 3.07373 54.2403 4.3544L37.5479 24.0944C32.9548 29.5296 24.8101 30.4757 19.0674 25.6913C17.8648 24.6893 16.8956 23.5368 16.1558 22.2918L18.2955 19.7534C18.9185 19.0146 20.0857 19.0972 20.5977 19.9159C21.0246 20.5985 21.5838 21.2429 22.268 21.8211C25.5203 24.4778 30.2554 24.4194 33.3041 21.1968C33.3082 21.1926 33.562 20.9142 33.6288 20.8353L40.3364 12.9139Z" fill="var(--fill-0, #15BAC6)"/>
</g>
</svg>
