<svg preserveAspectRatio="none" width="100%" height="100%" overflow="visible" style="display: block;" viewBox="0 0 118 25" fill="none" xmlns="http://www.w3.org/2000/svg">
<g id="Group">
<path id="Vector" d="M11.1443 8.35361C10.9929 8.20549 10.8112 8.087 10.6295 7.99813C11.326 7.16867 11.6894 6.10222 11.6894 5.00614C11.6894 3.55459 11.0232 2.1919 9.87241 1.27357C8.9639 0.532984 7.81311 0.177501 6.29892 0.177501H-0.000115541V5.00614V7.13904V9.80517V12.5602V18.0109H7.0863C8.81248 18.0109 10.1147 17.6258 11.114 16.7963C12.4163 15.7595 13.1733 14.2191 13.1733 12.5898C13.2036 10.9309 12.4465 9.39043 11.1443 8.35361ZM3.1494 3.05099H5.72353C7.17715 3.05099 7.66169 3.34722 7.93425 3.67308C8.26737 4.02857 8.47936 4.50254 8.47936 5.00614C8.47936 5.50975 8.29765 5.9541 7.93425 6.33921C7.63141 6.66507 7.17715 6.9613 5.72353 6.9613H3.1494C3.1494 6.9613 3.1494 3.05099 3.1494 3.05099ZM9.23645 14.308C8.81248 14.7227 8.17652 15.1078 6.51091 15.1078H3.1494V9.86441H6.54119C8.2068 9.86441 8.81248 10.2495 9.23645 10.6642C9.72099 11.1679 9.99355 11.8196 9.99355 12.4713C9.99355 13.1526 9.72099 13.8043 9.23645 14.308Z" fill="var(--fill-0, #15BAC6)"/>
<path id="Vector_2" d="M26.4064 5.8363H23.4386V18.0116H26.4064V5.8363Z" fill="var(--fill-0, #15BAC6)"/>
<path id="Vector_3" d="M24.894 0.148518C23.8644 0.148518 23.0467 0.948355 23.0467 1.98518C23.0467 2.99238 23.8644 3.79222 24.894 3.79222C25.9539 3.79222 26.7716 2.99238 26.7716 1.98518C26.7716 0.977979 25.9237 0.148518 24.894 0.148518Z" fill="var(--fill-0, #15BAC6)"/>
<path id="Vector_4" d="M37.5832 6.63515C36.5838 5.95381 35.4331 5.59833 34.1309 5.59833C33.0104 5.59833 31.9504 5.86494 31.0722 6.36854C29.1037 7.49424 27.8924 9.62713 27.8924 11.9081C27.8924 14.2188 29.0735 16.2924 31.0722 17.4181C31.9504 17.9217 33.1012 18.218 34.1914 18.218C35.4331 18.218 36.5536 17.8921 37.4924 17.2404V17.3293C37.4924 18.6623 37.3107 19.551 36.8867 20.1731C36.3416 20.973 35.4331 21.3877 34.2217 21.3877C32.3138 21.3877 31.2842 20.3805 30.5271 19.4325L30.3454 19.1956L28.1952 21.1507L28.3164 21.3285C29.1643 22.6319 31.2539 24.1427 34.3428 24.1427C36.7353 24.1427 38.7037 23.0466 39.7334 21.1211C40.2482 20.1435 40.4602 18.9289 40.4602 17.1811V5.83531H37.5832V6.63515V6.63515ZM37.4924 14.0114C36.7655 14.9298 35.645 15.4926 34.4943 15.4926C32.435 15.4926 30.8299 13.9226 30.8299 11.9378C30.8299 9.89375 32.3441 8.38294 34.3731 8.38294C35.5542 8.38294 36.7353 8.94579 37.4924 9.86412V14.0114Z" fill="var(--fill-0, #15BAC6)"/>
<path id="Vector_5" d="M48.3032 5.59926C46.8798 5.59926 45.7896 6.10286 45.0931 6.57684V0.148518H42.1253V18.0115H45.0931V9.86505C45.6988 9.18371 46.7284 8.38387 48.2426 8.38387C49.1208 8.38387 49.9688 8.76898 50.4836 9.4207C50.8167 9.83543 51.1196 10.3983 51.1196 11.9387V18.0115H54.0874V12.0572C54.0874 10.102 53.724 8.82823 52.876 7.76178C51.7555 6.39909 50.1202 5.59926 48.3032 5.59926Z" fill="var(--fill-0, #15BAC6)"/>
<path id="Vector_6" d="M73.4375 6.36854C72.5592 5.86494 71.4993 5.59833 70.3788 5.59833C69.0766 5.59833 67.9258 5.95381 66.9264 6.63515V5.86494H64.0495V23.965H67.0173V17.27C67.9561 17.9217 69.0766 18.2476 70.3182 18.2476C71.4084 18.2476 72.5895 17.9514 73.4375 17.4478C75.4362 16.2924 76.6173 14.2484 76.6173 11.9378C76.6475 9.65676 75.4059 7.52386 73.4375 6.36854ZM70.0154 15.4926C68.8949 15.4926 67.7744 14.9298 67.0173 14.0114V9.8345C67.7744 8.91617 68.9252 8.35332 70.1365 8.35332C72.1655 8.35332 73.6797 9.89375 73.6797 11.9081C73.6797 13.9226 72.0747 15.4926 70.0154 15.4926Z" fill="var(--fill-0, #15BAC6)"/>
<path id="Vector_7" d="M83.978 5.59833C80.4651 5.59833 77.9213 8.26445 77.9213 11.9378C77.9213 15.5519 80.6771 18.2772 84.3415 18.2772C87.4304 18.2772 89.0052 16.6775 89.5503 15.9962L89.7017 15.7888L87.7332 13.9818L87.5515 14.1892C86.8853 14.9298 85.9465 15.6703 84.3415 15.6703C82.5547 15.6703 81.0708 14.3965 80.7982 12.708H89.8834L89.9137 12.471C89.944 12.234 89.944 12.0563 89.944 11.9378C89.944 8.3237 87.3698 5.59833 83.978 5.59833ZM81.1011 10.1604C81.5856 8.97541 82.7364 8.17558 84.0689 8.17558C85.25 8.17558 86.4007 9.00504 86.8247 10.1604H81.1011Z" fill="var(--fill-0, #15BAC6)"/>
<path id="Vector_8" d="M100.876 6.63515C99.8767 5.95381 98.7259 5.59833 97.4237 5.59833C96.3032 5.59833 95.2433 5.86494 94.365 6.36854C92.3966 7.49423 91.1852 9.62713 91.1852 11.9081C91.1852 14.2188 92.3663 16.2924 94.365 17.4181C95.2433 17.9217 96.3941 18.218 97.4843 18.218C98.7259 18.218 99.907 17.8625 100.876 17.2108V17.981H103.753V5.83531H100.876V6.63515ZM100.785 14.0114C100.058 14.9298 98.9379 15.4926 97.7871 15.4926C95.7278 15.4926 94.1228 13.9226 94.1228 11.9378C94.1228 9.89375 95.637 8.38294 97.666 8.38294C98.847 8.38294 100.028 8.94579 100.785 9.86412V14.0114Z" fill="var(--fill-0, #15BAC6)"/>
<path id="Vector_9" d="M117.137 -0.00011778H114.169V18.011H117.137V-0.00011778Z" fill="var(--fill-0, #15BAC6)"/>
<path id="Vector_10" d="M62.3841 15.3454C61.9904 15.4639 61.3242 15.5232 60.9002 15.5232C60.1734 15.5232 59.4466 15.2565 59.1135 14.8714C58.8106 14.516 58.7501 13.9531 58.7501 13.2421V8.44312H62.3841V5.83625H58.7501V0.148518H55.7822V13.0644C55.7822 14.6641 56.1456 15.849 56.9027 16.6489C57.8415 17.6857 59.174 18.2189 60.8093 18.2189C61.3242 18.2189 61.8996 18.1597 62.3841 18.0708V15.3454Z" fill="var(--fill-0, #15BAC6)"/>
<g id="Group_2">
<path id="Vector_11" d="M21.865 5.71682C21.4713 5.62795 21.0474 5.59833 20.6234 5.59833C19.2 5.59833 18.1098 6.10193 17.4133 6.5759V5.83531H14.4455V18.0106H17.4133V9.86412C18.019 9.18278 19.0486 8.38294 20.5628 8.38294C21.0171 8.38294 21.4713 8.50144 21.8953 8.67918L21.865 5.71682Z" fill="var(--fill-0, #15BAC6)"/>
</g>
<g id="Group_3">
<path id="Vector_12" d="M112.836 5.71762C112.442 5.62875 112.018 5.59912 111.594 5.59912C110.171 5.59912 109.081 6.10272 108.384 6.5767V5.83611H105.417V18.0114H108.384V9.86492C108.99 9.18358 110.02 8.38374 111.534 8.38374C111.988 8.38374 112.442 8.50224 112.866 8.67998L112.836 5.71762Z" fill="var(--fill-0, #15BAC6)"/>
</g>
</g>
</svg>
