<svg preserveAspectRatio="none" width="100%" height="100%" overflow="visible" style="display: block;" viewBox="0 0 133 23" fill="none" xmlns="http://www.w3.org/2000/svg">
<g id="Group 1261152610">
<path id="Vector" d="M117.36 13.2381C117.36 8.04669 118.804 4.4127 124.974 4.4127C131.144 4.4127 132.588 8.04669 132.588 13.2381C132.588 18.4295 131.144 22.0635 124.974 22.0635C118.935 22.0635 117.36 18.4295 117.36 13.2381ZM128.781 13.2381C128.781 9.60411 128.256 7.52755 125.105 7.52755C121.955 7.52755 121.43 9.60411 121.43 13.2381C121.43 16.8721 121.955 18.9487 125.105 18.9487C128.256 18.9487 128.781 16.7423 128.781 13.2381ZM11.946 21.4146C12.0773 21.5444 12.2086 21.6741 12.3399 21.6741H13.7839C14.0464 21.6741 14.309 21.4146 14.309 21.155V5.19141C14.309 4.93184 14.0464 4.67227 13.7839 4.67227H11.0271C10.7646 4.67227 10.502 4.93184 10.502 5.19141V17.7806C9.32054 18.4295 7.87651 18.8189 6.56376 18.8189C4.72591 18.8189 3.80698 18.0402 3.80698 16.353V5.19141C3.80698 4.93184 3.54443 4.67227 3.28188 4.67227H0.525101C0.26255 4.67227 0 4.93184 0 5.19141V16.6125C0 19.8572 1.5753 22.0635 5.90738 22.0635C7.87651 22.0635 9.84564 21.4146 11.4209 20.2465L11.946 21.4146V21.4146ZM43.9772 9.7339C43.9772 6.48927 42.4019 4.28292 38.3324 4.28292C36.3632 4.28292 34.5254 4.93184 32.8188 5.97012C32.1624 4.93184 30.7184 4.28292 28.4867 4.28292C26.6489 4.28292 24.811 4.93184 23.367 6.09991L22.8419 4.93184C22.7106 4.80206 22.5793 4.67227 22.4481 4.67227H21.004C20.7415 4.67227 20.4789 4.93184 20.4789 5.19141V21.155C20.4789 21.4146 20.7415 21.6741 21.004 21.6741H23.8921C24.1546 21.6741 24.4172 21.4146 24.4172 21.155V8.56583C25.4674 7.9169 26.7801 7.52755 27.9616 7.52755C29.5369 7.52755 30.4558 8.04669 30.4558 9.7339V21.155C30.4558 21.4146 30.7184 21.6741 30.9809 21.6741H33.869C34.1316 21.6741 34.3941 21.4146 34.3941 21.155V8.56583C35.4443 7.9169 36.7571 7.52755 37.9385 7.52755C39.3826 7.52755 40.4328 8.04669 40.4328 9.7339V21.155C40.4328 21.4146 40.6953 21.6741 40.9579 21.6741H43.8459C44.1085 21.6741 44.371 21.4146 44.371 21.155L43.9772 9.7339V9.7339ZM52.7726 20.2465C54.3479 21.4146 56.3171 22.0635 58.2862 22.0635C63.2746 22.0635 65.1125 18.6891 65.1125 13.2381C65.1125 7.78712 63.2746 4.4127 58.2862 4.4127C56.7109 4.4127 55.0043 4.93184 53.6916 5.71055V0.519141C53.6916 0.259571 53.429 0 53.1665 0H50.2784C50.0159 0 49.8846 0.259571 49.8846 0.519141V21.155C49.8846 21.4146 50.1471 21.6741 50.4097 21.6741H51.8537C51.985 21.6741 52.2475 21.5444 52.2475 21.4146L52.7726 20.2465ZM57.3673 18.8189C56.0545 18.8189 54.7418 18.4295 53.6916 17.7806V8.56583C54.873 7.9169 56.0545 7.52755 57.3673 7.52755C60.7804 7.52755 61.1742 10.1233 61.1742 13.2381C61.1742 16.353 60.7804 18.8189 57.3673 18.8189ZM79.2902 7.65733C78.8964 7.65733 78.3713 7.52755 77.9775 7.52755C76.4022 7.52755 74.9581 7.78712 73.6454 8.56583V21.155C73.6454 21.4146 73.3828 21.6741 73.1203 21.6741H70.2322C69.9697 21.6741 69.7071 21.4146 69.7071 21.155V5.19141C69.7071 4.93184 69.9697 4.67227 70.2322 4.67227H71.6763C71.8075 4.67227 72.0701 4.80206 72.0701 4.93184L72.5952 6.09991C74.1705 4.93184 76.0083 4.28292 77.9775 4.28292C78.3713 4.28292 78.8964 4.28292 79.2902 4.4127C79.5528 4.4127 79.8153 4.80206 79.8153 5.06163V7.13819C79.8153 7.39776 79.5528 7.65733 79.2902 7.65733ZM89.1359 13.887C87.4293 14.1466 86.3791 14.6657 86.3791 16.4827C86.3791 17.7806 86.9042 18.9487 89.0046 18.9487C90.3173 18.9487 91.6301 18.5593 92.6803 17.7806V13.3679L89.1359 13.887ZM93.7305 20.2465C92.2865 21.4146 90.4486 22.0635 88.6108 22.0635C84.1474 22.0635 82.7034 19.338 82.7034 16.6125C82.7034 12.9785 85.0663 11.4211 89.0046 11.0318L92.8116 10.7722V9.99347C92.8116 8.30626 92.0239 7.52755 89.3984 7.52755C87.8231 7.52755 86.2478 7.78712 84.6725 8.30626H84.5412C84.2787 8.30626 84.0161 8.04669 84.0161 7.78712V5.58077C84.0161 5.3212 84.1474 5.19141 84.41 5.06163C86.1165 4.54249 87.9544 4.15313 89.661 4.15313C95.3058 4.15313 96.6185 6.61905 96.6185 10.1233V20.8954C96.6185 21.155 96.356 21.4146 96.0934 21.4146H94.6494C94.5181 21.4146 94.2556 21.2848 94.2556 21.155L93.7305 20.2465V20.2465ZM113.159 18.1699H113.291C113.553 18.1699 113.816 18.4295 113.816 18.6891V20.8954C113.816 21.155 113.684 21.2848 113.553 21.4146C112.109 21.9337 110.665 22.1933 109.09 22.0635C103.051 22.0635 101.213 18.4295 101.213 13.2381C101.213 8.04669 103.051 4.4127 109.09 4.4127C110.534 4.4127 112.109 4.54249 113.422 5.06163C113.553 5.19141 113.684 5.3212 113.684 5.58077V7.78712C113.684 8.04669 113.422 8.30626 113.159 8.30626H113.028C111.846 7.9169 110.534 7.78712 109.221 7.78712C105.939 7.78712 104.889 9.99347 104.889 13.3679C104.889 16.7423 105.808 18.9487 109.221 18.9487C110.665 18.6891 111.978 18.5593 113.159 18.1699" fill="var(--fill-0, #15BAC6)"/>
</g>
</svg>
